<svg width="460" height="401" viewBox="0 0 460 401" fill="none" xmlns="http://www.w3.org/2000/svg">
<path d="M400.969 85.7986C325.058 -0.577019 194.731 -14.9531 136.631 12.7915C114.055 23.489 93.1733 37.4434 74.6523 54.2081C72.2256 56.3748 69.8675 58.6029 67.578 60.8924C60.4292 67.9338 53.7248 75.4125 47.5035 83.2853C40.047 92.7032 33.3214 102.677 27.3856 113.121C18.8804 127.982 12.1431 143.787 7.3111 160.214C4.11394 170.992 2.01599 182.066 1.04932 193.267C-0.608204 214.295 0.832659 235.518 3.66021 256.372C3.92021 258.366 4.20188 260.359 4.50522 262.353C4.58106 262.905 4.65689 263.436 4.74356 264.01C7.85278 284.778 12.2512 305.73 22.0772 323.844C32.8024 343.636 70.2214 398.552 110.804 399.971C131.853 400.718 150.444 386.971 169.521 377.22C199.855 361.75 234.187 358.717 267.662 357.818C301.138 356.918 335.025 357.883 367.645 349.584C400.265 341.286 432.245 322.229 448.918 290.552C454.584 279.784 458.885 264.27 458.896 251.855C458.896 215.227 452.916 183.192 442.472 155.361C439.156 146.486 435.288 137.828 430.891 129.436C424.451 117.131 416.863 105.462 408.227 94.5846L400.969 85.7986Z" fill="#FFDE34"/>
<g opacity="0.7">
<path d="M400.969 85.7986C325.058 -0.577019 194.731 -14.9531 136.631 12.7915C114.055 23.489 93.1733 37.4434 74.6523 54.2081C72.2256 56.3748 69.8675 58.6029 67.578 60.8924C60.4292 67.9338 53.7248 75.4125 47.5035 83.2853C40.047 92.7032 33.3214 102.677 27.3856 113.121C18.8804 127.982 12.1431 143.787 7.3111 160.214C4.11394 170.992 2.01599 182.066 1.04932 193.267C-0.608204 214.295 0.832659 235.518 3.66021 256.372C3.92021 258.366 4.20188 260.359 4.50522 262.353C4.58106 262.905 4.65689 263.436 4.74356 264.01C7.85278 284.778 12.2512 305.73 22.0772 323.844C32.8024 343.636 70.2214 398.552 110.804 399.971C131.853 400.718 150.444 386.971 169.521 377.22C199.855 361.75 234.187 358.717 267.662 357.818C301.138 356.918 335.025 357.883 367.645 349.584C400.265 341.286 432.245 322.229 448.918 290.552C454.584 279.784 458.885 264.27 458.896 251.855C458.896 215.227 452.916 183.192 442.472 155.361C439.156 146.486 435.288 137.828 430.891 129.436C424.451 117.131 416.863 105.462 408.227 94.5846L400.969 85.7986Z" fill="white"/>
</g>
<path d="M100.349 241.552V241.672C100.349 241.867 100.306 242.073 100.219 242.289C99.735 244.663 99.3734 247.061 99.1361 249.472C98.9303 251.541 98.7678 253.903 98.7245 256.535C98.6216 262.619 99.0384 268.701 99.9703 274.714C100.209 276.296 100.49 277.964 100.826 279.632C101.357 282.384 102.007 285.266 102.809 288.245C103.166 289.632 103.578 291.051 104.011 292.481L104.52 294.225C104.715 294.929 104.91 295.633 105.095 296.392C106.34 301.205 107.334 306.079 108.074 310.995C108.995 317.116 109.569 323.194 109.883 328.947C110.305 336.617 110.284 343.702 110.1 349.53C110.105 349.628 110.105 349.725 110.1 349.823C109.905 355.749 109.536 360.396 109.287 363.04C109.146 364.589 109.049 365.466 109.038 365.521" stroke="#263238" stroke-linecap="round" stroke-linejoin="round"/>
<path d="M100.317 241.704C101.939 240.263 103.893 239.247 106.005 238.747Z" fill="white"/>
<path d="M100.317 241.704C101.939 240.263 103.893 239.247 106.005 238.747" stroke="#263238" stroke-linecap="round" stroke-linejoin="round"/>
<path d="M99.1036 249.504L96.2219 246.893" stroke="#263238" stroke-linecap="round" stroke-linejoin="round"/>
<path d="M102.776 288.256C102.927 287.495 103.152 286.751 103.448 286.035C103.875 284.984 104.455 284.002 105.17 283.121C105.704 282.459 106.311 281.859 106.979 281.333" stroke="#263238" stroke-linecap="round" stroke-linejoin="round"/>
<path d="M105.084 296.381C104.675 295.369 104.064 294.452 103.287 293.686C102.51 292.92 101.584 292.322 100.566 291.928" stroke="#263238" stroke-linecap="round" stroke-linejoin="round"/>
<path d="M110.089 336.682C109.125 335.512 108.399 331.081 108.009 328.697C107.911 328.134 107.835 327.614 107.76 327.3" fill="white"/>
<path d="M110.089 336.682C109.125 335.512 108.399 331.081 108.009 328.697C107.911 328.134 107.835 327.614 107.76 327.3" stroke="#263238" stroke-linecap="round" stroke-linejoin="round"/>
<path d="M117.51 344.72C117.189 344.688 116.866 344.688 116.546 344.72C115.127 344.858 113.772 345.38 112.627 346.229C111.482 347.078 110.589 348.223 110.045 349.541" fill="white"/>
<path d="M117.51 344.72C117.189 344.688 116.866 344.688 116.546 344.72C115.127 344.858 113.772 345.38 112.627 346.229C111.482 347.078 110.589 348.223 110.045 349.541" stroke="#263238" stroke-linecap="round" stroke-linejoin="round"/>
<path d="M100.794 279.719C100.794 279.719 100.284 262.136 109.937 255.755" stroke="#263238" stroke-linecap="round" stroke-linejoin="round"/>
<path d="M99.9702 317.409C98.7026 321.515 107.554 329.326 107.554 329.326C107.554 329.326 119.243 327.863 120.554 323.768C121.865 319.673 118.864 312.935 113.187 311.201C107.51 309.468 101.194 313.303 99.9702 317.409Z" fill="#FFDE34"/>
<path d="M90.1226 267.65C91.206 271.984 99.6128 275.093 99.6128 275.093C99.6128 275.093 105.387 268.344 104.304 263.989C103.22 259.633 98.5511 254.845 94.6294 255.853C90.7076 256.86 88.9959 263.295 90.1226 267.65Z" fill="#FFDE34"/>
<path d="M123.696 332.727C118.441 334.764 115.224 344.059 115.224 344.059C115.224 344.059 123.891 348.728 129.134 346.681C134.378 344.633 139.968 338.87 138.451 335.024C136.934 331.178 128.95 330.636 123.696 332.727Z" fill="#FFDE34"/>
<path d="M112.18 281.593C111.116 282.487 109.897 283.178 108.583 283.63C107.923 283.843 107.218 283.871 106.543 283.711C105.869 283.55 105.251 283.208 104.759 282.72C103.675 281.431 103.935 279.47 104.639 277.856C106.048 274.768 111.226 269.514 115.202 271.02C120.944 273.219 114.736 279.719 112.18 281.593Z" fill="#FFDE34"/>
<path d="M100.425 289.469C101.184 290.401 101.985 291.581 101.563 292.719C101.327 293.197 100.94 293.583 100.462 293.818C99.984 294.054 99.4416 294.124 98.9194 294.019C97.8802 293.772 96.9101 293.295 96.081 292.621C94.0551 291.213 89.895 288.288 92.5492 285.504C95.2034 282.72 98.8869 287.508 100.425 289.469Z" fill="#FFDE34"/>
<path d="M117.38 250.176C117.817 250.201 118.235 250.363 118.575 250.639C118.916 250.915 119.16 251.291 119.276 251.714C119.449 252.721 118.615 253.599 117.813 254.217C115.798 255.777 109.742 259.958 108.399 255.917C107.12 252.104 114.715 249.883 117.38 250.176Z" fill="#FFDE34"/>
<path d="M106.232 236.894C107.478 237.013 108.724 236.558 109.98 236.634C111.237 236.71 112.613 237.717 112.342 238.952C112.071 240.187 110.674 240.458 109.525 240.523C107.548 240.65 105.563 240.515 103.621 240.122C103.161 240.079 102.735 239.862 102.429 239.516C101.92 238.768 102.722 237.771 103.588 237.511C104.478 237.393 105.353 237.182 106.199 236.883L106.232 236.894Z" fill="#FFDE34"/>
<path d="M94.0335 245.485C92.7876 245.485 91.5743 244.987 90.3176 244.976C89.0609 244.965 87.6092 245.886 87.8151 247.142C88.0209 248.399 89.3642 248.757 90.5126 248.897C92.4757 249.157 94.4646 249.157 96.4277 248.897C96.8925 248.887 97.3352 248.697 97.6627 248.367C98.2152 247.662 97.4786 246.612 96.6444 246.287C95.7612 246.122 94.8998 245.856 94.0768 245.496L94.0335 245.485Z" fill="#FFDE34"/>
<path d="M95.2686 337.808C94.9816 337.509 94.5978 337.321 94.1853 337.277C93.9069 337.304 93.6465 337.426 93.4487 337.624C93.251 337.822 93.1284 338.082 93.1019 338.361C93.042 338.896 93.1088 339.438 93.2969 339.942C94.1528 342.792 103.686 363.364 105.885 359.67C107.175 357.504 103.99 350.256 103.047 348.208C101.248 344.213 98.5929 340.662 95.2686 337.808V337.808Z" fill="#FFDE34"/>
<path d="M99.9162 242.885C99.9162 242.885 100.49 237.891 99.2879 237.468" stroke="#263238" stroke-linecap="round" stroke-linejoin="round"/>
<path d="M100.978 237.674C100.363 235.91 99.3036 234.335 97.9011 233.102C96.3952 232.019 93.9793 231.932 92.8851 233.438C91.661 235.117 92.8852 237.663 94.7594 238.562C96.6336 239.461 98.8436 239.191 100.902 238.898C100.902 238.595 100.902 238.291 100.902 237.988L100.978 237.674Z" fill="#FFDE34"/>
<path d="M95.8428 398.465C106.055 400.188 116.484 400.188 126.697 398.465V398.465L138.7 363.05H83.8392L95.8428 398.465Z" fill="white" stroke="#263238" stroke-linecap="round" stroke-linejoin="round"/>
<path d="M305.211 142.599V142.718C305.168 142.913 305.125 143.119 305.081 143.336C304.591 145.708 304.229 148.106 303.998 150.518C303.792 152.587 303.641 154.949 303.586 157.582C303.475 163.65 303.881 169.717 304.8 175.717C305.038 177.299 305.32 178.967 305.656 180.635C306.186 183.387 306.847 186.269 307.638 189.248C308.006 190.635 308.407 192.054 308.841 193.484C309.014 194.069 309.187 194.643 309.35 195.228C309.512 195.813 309.751 196.636 309.935 197.395" stroke="#263238" stroke-linecap="round" stroke-linejoin="round"/>
<path d="M305.19 142.751C305.967 142.07 306.817 141.478 307.725 140.985C308.726 140.457 309.788 140.057 310.888 139.793" fill="white"/>
<path d="M305.19 142.751C305.967 142.07 306.817 141.478 307.725 140.985C308.726 140.457 309.788 140.057 310.888 139.793" stroke="#263238" stroke-linecap="round" stroke-linejoin="round"/>
<path d="M303.976 150.551L301.084 147.94" stroke="#263238" stroke-linecap="round" stroke-linejoin="round"/>
<path d="M307.638 189.302C307.793 188.542 308.021 187.798 308.321 187.081C308.748 186.03 309.328 185.048 310.043 184.167C310.577 183.505 311.184 182.905 311.852 182.38" stroke="#263238" stroke-linecap="round" stroke-linejoin="round"/>
<path d="M309.946 197.384C309.541 196.372 308.932 195.454 308.157 194.687C307.381 193.921 306.456 193.323 305.439 192.931" stroke="#263238" stroke-linecap="round" stroke-linejoin="round"/>
<path d="M314.961 237.728C313.997 236.558 313.261 232.127 312.871 229.744C312.784 229.18 312.697 228.66 312.632 228.346" fill="white"/>
<path d="M314.961 237.728C313.997 236.558 313.261 232.127 312.871 229.744C312.784 229.18 312.697 228.66 312.632 228.346" stroke="#263238" stroke-linecap="round" stroke-linejoin="round"/>
<path d="M322.382 245.723C322.058 245.691 321.732 245.691 321.407 245.723C319.99 245.865 318.636 246.388 317.492 247.236C316.347 248.085 315.454 249.228 314.907 250.544" fill="white"/>
<path d="M322.382 245.723C322.058 245.691 321.732 245.691 321.407 245.723C319.99 245.865 318.636 246.388 317.492 247.236C316.347 248.085 315.454 249.228 314.907 250.544" stroke="#263238" stroke-linecap="round" stroke-linejoin="round"/>
<path d="M305.666 180.722C305.666 180.722 305.146 163.139 314.81 156.759" stroke="#263238" stroke-linecap="round" stroke-linejoin="round"/>
<path d="M304.789 218.455C303.532 222.561 312.372 230.372 312.372 230.372C312.372 230.372 324.073 228.909 325.373 224.814C326.673 220.719 323.672 213.981 318.006 212.248C312.34 210.514 306.056 214.36 304.789 218.455Z" fill="#FFDE34"/>
<path d="M294.974 168.697C296.057 173.03 304.464 176.14 304.464 176.14C304.464 176.14 310.303 169.39 309.176 165.035C308.05 160.68 303.435 155.892 299.513 156.899C295.591 157.907 293.89 164.342 294.974 168.697Z" fill="#FFDE34"/>
<path d="M328.558 233.774C323.303 235.821 320.075 245.106 320.075 245.106C320.075 245.106 328.742 249.775 333.996 247.727C339.25 245.68 344.83 239.916 343.302 236.07C341.774 232.225 333.823 231.726 328.558 233.774Z" fill="#FFDE34"/>
<path d="M317.042 182.64C315.982 183.534 314.766 184.224 313.456 184.677C312.796 184.89 312.09 184.918 311.416 184.758C310.741 184.597 310.124 184.254 309.631 183.766C308.548 182.477 308.808 180.516 309.512 178.902C310.921 175.815 316.088 170.56 320.075 172.066C325.806 174.244 319.609 180.744 317.042 182.64Z" fill="#FFDE34"/>
<path d="M305.298 190.526C306.046 191.458 306.847 192.693 306.436 193.777C306.2 194.254 305.813 194.641 305.335 194.876C304.857 195.111 304.315 195.182 303.792 195.077C302.752 194.832 301.782 194.354 300.954 193.679C298.928 192.282 294.768 189.346 297.422 186.561C300.076 183.777 303.706 188.555 305.298 190.526Z" fill="#FFDE34"/>
<path d="M322.252 151.222C322.689 151.249 323.107 151.412 323.447 151.688C323.787 151.964 324.032 152.339 324.148 152.761C324.322 153.768 323.487 154.646 322.675 155.263C320.66 156.823 314.615 161.005 313.261 156.964C311.993 153.151 319.577 150.93 322.252 151.222Z" fill="#FFDE34"/>
<path d="M311.105 137.94C312.351 138.06 313.597 137.605 314.842 137.68C316.088 137.756 317.486 138.764 317.204 139.999C316.922 141.234 315.547 141.505 314.387 141.57C312.414 141.697 310.432 141.562 308.494 141.169C308.031 141.126 307.601 140.909 307.291 140.562C306.793 139.815 307.595 138.818 308.451 138.558C309.344 138.44 310.223 138.229 311.072 137.93L311.105 137.94Z" fill="#FFDE34"/>
<path d="M298.906 146.531C297.65 146.531 296.436 146.033 295.19 146.022C293.944 146.011 292.482 146.932 292.677 148.189C292.872 149.446 294.237 149.803 295.385 149.944C297.348 150.204 299.337 150.204 301.3 149.944C301.765 149.933 302.208 149.743 302.535 149.413C303.088 148.709 302.351 147.658 301.506 147.333C300.624 147.165 299.763 146.9 298.939 146.542L298.906 146.531Z" fill="#FFDE34"/>
<path d="M300.141 238.855C299.853 238.557 299.47 238.369 299.058 238.324C298.782 238.356 298.525 238.481 298.328 238.677C298.131 238.874 298.007 239.131 297.975 239.407C297.919 239.943 297.989 240.485 298.18 240.989C299.025 243.838 308.57 264.411 310.758 260.717C312.058 258.55 308.873 251.303 307.931 249.255C306.129 245.259 303.469 241.708 300.141 238.855V238.855Z" fill="#FFDE34"/>
<path d="M304.789 143.953C304.789 143.953 305.363 138.959 304.15 138.536" stroke="#263238" stroke-linecap="round" stroke-linejoin="round"/>
<path d="M305.807 138.721C305.201 136.953 304.14 135.376 302.73 134.149C301.225 133.065 298.819 132.979 297.725 134.485C296.501 136.164 297.725 138.71 299.6 139.609C301.474 140.508 303.673 140.237 305.731 139.945C305.731 139.641 305.731 139.338 305.731 139.035L305.807 138.721Z" fill="#FFDE34"/>
<path d="M251.975 264.314H458.896V398.714H251.975V264.314Z" fill="white" stroke="#263238" stroke-linecap="round" stroke-linejoin="round"/>
<path d="M458.896 264.314L355.435 331.514L251.975 264.314H458.896Z" fill="white" stroke="#263238" stroke-linecap="round" stroke-linejoin="round"/>
<path d="M386.539 311.31L458.896 398.715" stroke="#263238" stroke-linecap="round" stroke-linejoin="round"/>
<path d="M323.769 311.31L251.412 398.715" stroke="#263238" stroke-linecap="round" stroke-linejoin="round"/>
<path d="M141.246 92.8187H189.347C190.732 92.8203 192.092 93.193 193.284 93.8979C194.477 94.6028 195.459 95.6142 196.129 96.8271V96.8271C197.311 98.9604 199.042 100.738 201.143 101.976C203.245 103.214 205.639 103.867 208.078 103.867C210.517 103.867 212.911 103.214 215.013 101.976C217.114 100.738 218.845 98.9604 220.027 96.8271V96.8271C220.691 95.5985 221.675 94.5724 222.875 93.8572C224.075 93.1421 225.445 92.7645 226.842 92.7645H274.888C276.207 92.7473 277.517 92.9901 278.742 93.479C279.967 93.9679 281.083 94.6933 282.028 95.6138C282.973 96.5343 283.727 97.6319 284.247 98.8438C284.767 100.056 285.044 101.358 285.061 102.677V373.97C285.024 376.633 283.932 379.172 282.025 381.031C280.118 382.889 277.551 383.915 274.888 383.883H141.246C138.582 383.915 136.015 382.889 134.106 381.031C132.197 379.173 131.102 376.634 131.063 373.97V102.731C131.1 100.067 132.193 97.526 134.103 95.6673C136.012 93.8086 138.581 92.784 141.246 92.8187Z" fill="#FFDE34"/>
<path d="M126.372 99.7305C126.366 97.903 126.721 96.0923 127.416 94.4023C128.112 92.7122 129.134 91.176 130.424 89.8818C131.714 88.5875 133.247 87.5606 134.935 86.8599C136.623 86.1592 138.433 85.7986 140.26 85.7986H275.863C277.687 85.7972 279.493 86.1551 281.177 86.8519C282.862 87.5486 284.394 88.5706 285.683 89.8595C286.973 91.1483 287.996 92.6786 288.695 94.363C289.393 96.0475 289.752 97.853 289.752 99.6763V99.6763V384.804C289.752 388.484 288.29 392.014 285.687 394.617C283.085 397.219 279.555 398.682 275.874 398.682H140.26C136.579 398.682 133.048 397.22 130.443 394.618C127.839 392.015 126.374 388.485 126.372 384.804V384.804V99.7305ZM131.062 373.97C131.102 376.634 132.197 379.173 134.106 381.031C136.015 382.889 138.582 383.915 141.246 383.883H274.888C277.551 383.915 280.118 382.889 282.025 381.03C283.932 379.172 285.024 376.633 285.061 373.97V102.731C285.044 101.413 284.767 100.11 284.247 98.898C283.727 97.686 282.973 96.5885 282.028 95.668C281.083 94.7475 279.967 94.0221 278.742 93.5332C277.517 93.0443 276.207 92.8015 274.888 92.8187H226.82C225.425 92.8183 224.056 93.1958 222.858 93.9111C221.66 94.6264 220.678 95.6528 220.017 96.8813V96.8813C218.835 99.0145 217.103 100.792 215.002 102.03C212.9 103.268 210.506 103.921 208.067 103.921C205.628 103.921 203.234 103.268 201.133 102.03C199.031 100.792 197.3 99.0145 196.118 96.8813C195.45 95.6669 194.468 94.6542 193.275 93.9491C192.082 93.2439 190.722 92.8722 189.336 92.8729H141.235C139.916 92.8557 138.607 93.0985 137.382 93.5873C136.157 94.0762 135.04 94.8016 134.096 95.7221C133.151 96.6426 132.397 97.7402 131.876 98.9522C131.356 100.164 131.079 101.467 131.062 102.786V373.97Z" fill="#263238"/>
<path opacity="0.2" d="M172.446 85.842L262.527 398.703L226.755 398.671L140.011 85.842H172.446Z" fill="white"/>
<path opacity="0.2" d="M185.88 85.842L281.118 398.714L275.907 398.682L182.457 85.842H185.88Z" fill="white"/>
<path d="M183.768 318.427C183.701 321.528 184.256 324.611 185.399 327.495C186.543 330.378 188.251 333.003 190.425 335.216C192.598 337.429 195.193 339.185 198.055 340.38C200.918 341.575 203.99 342.185 207.092 342.174C213.421 342.15 219.49 339.653 224.004 335.216C228.517 330.78 231.118 324.754 231.251 318.427C231.316 315.327 230.76 312.245 229.616 309.362C228.472 306.48 226.763 303.856 224.59 301.644C222.416 299.432 219.823 297.678 216.961 296.484C214.099 295.289 211.027 294.68 207.926 294.691C201.598 294.712 195.529 297.206 191.016 301.641C186.502 306.076 183.901 312.1 183.768 318.427V318.427Z" fill="white" stroke="#263238" stroke-linecap="round" stroke-linejoin="round"/>
<path d="M215.293 336.151C217.498 335.335 219.52 334.09 221.241 332.489C222.976 330.822 224.319 328.79 225.173 326.541C226.147 324.02 226.629 321.335 226.593 318.633C226.606 316.329 226.199 314.041 225.39 311.884C224.655 309.89 223.553 308.053 222.14 306.467C219.355 303.42 215.758 301.233 211.772 300.162C209.815 299.634 207.797 299.368 205.771 299.371C204.088 299.363 202.41 299.563 200.776 299.967C199.2 300.354 197.691 300.978 196.302 301.819C194.927 302.645 193.694 303.688 192.651 304.907C191.564 306.221 190.734 307.728 190.203 309.348C189.595 311.197 189.295 313.133 189.314 315.079C189.337 318.84 190.692 322.471 193.139 325.328C194.191 326.521 195.436 327.528 196.822 328.307C198.017 328.993 199.366 329.365 200.744 329.39C201.695 329.403 202.624 329.102 203.387 328.535C203.77 328.251 204.082 327.882 204.299 327.457C204.515 327.032 204.629 326.563 204.633 326.086C205.344 327.167 206.319 328.048 207.466 328.645C208.614 329.242 209.894 329.536 211.187 329.499C212.204 329.544 213.219 329.362 214.156 328.964C215.093 328.567 215.93 327.965 216.604 327.202C217.957 325.63 218.672 323.609 218.608 321.536C218.599 319.83 218.303 318.138 217.731 316.531C217.161 314.911 216.354 313.385 215.337 312.003C214.322 310.644 213.029 309.518 211.545 308.698C210.061 307.861 208.385 307.424 206.681 307.431C205.496 307.419 204.327 307.702 203.279 308.254C202.261 308.797 201.436 309.641 200.917 310.67L200.7 309.944C200.528 309.436 200.16 309.017 199.679 308.779C199.198 308.542 198.641 308.505 198.133 308.677C197.936 308.744 197.75 308.839 197.58 308.958C197.419 309.087 197.29 309.253 197.206 309.441C197.121 309.63 197.082 309.835 197.093 310.042C197.093 310.244 197.126 310.446 197.19 310.638L200.7 322.316C201.01 323.206 201.21 324.13 201.296 325.068C201.329 325.243 201.317 325.423 201.263 325.593C201.209 325.762 201.115 325.916 200.987 326.04C200.86 326.165 200.704 326.256 200.533 326.305C200.362 326.355 200.181 326.361 200.007 326.325C198.765 326.245 197.601 325.69 196.757 324.775C195.587 323.618 194.688 322.216 194.125 320.669C193.452 318.98 193.107 317.179 193.106 315.361C193.092 313.76 193.326 312.167 193.799 310.638C194.198 309.319 194.829 308.083 195.663 306.987C196.453 305.989 197.409 305.135 198.49 304.463C199.568 303.783 200.745 303.275 201.979 302.957C203.245 302.624 204.548 302.456 205.857 302.458C207.517 302.461 209.169 302.694 210.765 303.152C212.408 303.617 213.974 304.322 215.412 305.243C216.863 306.158 218.176 307.274 219.312 308.558C220.483 309.91 221.394 311.467 221.999 313.151C222.68 314.984 223.021 316.926 223.007 318.882C223.042 321.198 222.623 323.499 221.772 325.653C221.038 327.518 219.881 329.187 218.392 330.528C216.953 331.777 215.292 332.743 213.495 333.377C211.599 334.048 209.601 334.385 207.591 334.374C205.442 334.374 203.305 334.049 201.253 333.41C201.048 333.336 200.832 333.299 200.614 333.301C200.411 333.298 200.209 333.338 200.022 333.418C199.836 333.499 199.668 333.618 199.53 333.767C199.392 333.911 199.284 334.081 199.211 334.267C199.139 334.453 199.104 334.651 199.108 334.851C199.082 335.166 199.171 335.48 199.358 335.734C199.545 335.989 199.818 336.168 200.126 336.237C202.683 337.019 205.339 337.428 208.013 337.451C210.497 337.447 212.961 337.007 215.293 336.151V336.151ZM206.345 324.916C205.274 324.147 204.48 323.053 204.081 321.796L201.816 313.834L201.968 313.509C202.109 313.248 202.28 313.004 202.477 312.783C202.749 312.47 203.046 312.18 203.366 311.916C203.771 311.592 204.229 311.339 204.72 311.169C206.002 310.721 207.405 310.771 208.652 311.309C209.335 311.599 209.962 312.006 210.505 312.512C211.069 313.038 211.57 313.627 212 314.267C212.43 314.933 212.793 315.641 213.083 316.379C213.388 317.118 213.623 317.883 213.787 318.665C213.951 319.409 214.035 320.168 214.037 320.93C214.046 321.419 214.017 321.908 213.95 322.392C213.9 322.823 213.805 323.248 213.668 323.66C213.549 324.042 213.378 324.407 213.159 324.743C212.963 325.045 212.713 325.31 212.422 325.523C212.112 325.748 211.763 325.913 211.393 326.01C210.961 326.137 210.511 326.196 210.061 326.184C208.705 326.2 207.383 325.766 206.301 324.949L206.345 324.916Z" fill="#FFDE34" stroke="#263238" stroke-linecap="round" stroke-linejoin="round"/>
<path d="M184.298 237.035C184.233 240.135 184.789 243.217 185.933 246.099C187.077 248.981 188.786 251.605 190.96 253.817C193.133 256.029 195.727 257.784 198.589 258.978C201.45 260.172 204.522 260.782 207.623 260.771C213.951 260.75 220.02 258.255 224.534 253.82C229.048 249.385 231.649 243.361 231.782 237.035C231.85 233.933 231.296 230.849 230.153 227.965C229.011 225.081 227.302 222.455 225.128 220.242C222.954 218.029 220.359 216.273 217.496 215.079C214.633 213.884 211.559 213.275 208.457 213.288C202.128 213.312 196.059 215.808 191.546 220.245C187.032 224.682 184.431 230.707 184.298 237.035V237.035Z" fill="white" stroke="#263238" stroke-linecap="round" stroke-linejoin="round"/>
<path d="M193.138 234.868C200.581 229.993 215.174 229.993 222.27 234.868C223.568 235.111 224.735 235.813 225.558 236.845C226.381 237.877 226.806 239.171 226.755 240.49C226.647 243.643 213.549 243.643 213.657 240.49C213.721 239.172 214.224 237.914 215.087 236.915C210.175 235.854 205.093 235.854 200.18 236.915C200.98 237.932 201.394 239.198 201.35 240.49C201.242 243.643 188.144 243.643 188.263 240.49C188.325 239.141 188.84 237.853 189.724 236.832C190.609 235.812 191.812 235.12 193.138 234.868V234.868Z" fill="#FFDE34" stroke="#263238" stroke-linecap="round" stroke-linejoin="round"/>
<path d="M184.298 157.971C184.168 163.811 187.353 169.032 192.467 172.51V186.691L202.64 176.508C204.284 176.802 205.952 176.947 207.623 176.941C220.732 176.941 231.554 168.447 231.782 157.971C232.009 147.495 221.577 139.013 208.457 139.013C195.338 139.013 184.472 147.55 184.298 157.971Z" fill="white" stroke="#263238" stroke-linecap="round" stroke-linejoin="round"/>
<path d="M218.153 157.972C218.151 158.581 218.33 159.177 218.666 159.684C219.003 160.191 219.483 160.587 220.045 160.822C220.607 161.056 221.226 161.119 221.824 161.001C222.421 160.884 222.97 160.592 223.402 160.162C223.833 159.732 224.127 159.184 224.247 158.587C224.366 157.99 224.306 157.37 224.073 156.808C223.841 156.245 223.447 155.764 222.94 155.425C222.434 155.086 221.839 154.906 221.23 154.906C220.416 154.906 219.635 155.228 219.058 155.803C218.482 156.378 218.156 157.158 218.153 157.972V157.972Z" fill="#FFDE34" stroke="#263238" stroke-linecap="round" stroke-linejoin="round"/>
<path d="M204.991 157.972C204.988 158.581 205.167 159.177 205.504 159.684C205.841 160.191 206.32 160.587 206.882 160.822C207.444 161.056 208.063 161.119 208.661 161.001C209.258 160.884 209.808 160.592 210.239 160.162C210.67 159.732 210.964 159.184 211.084 158.587C211.204 157.99 211.143 157.37 210.911 156.808C210.678 156.245 210.284 155.764 209.778 155.425C209.271 155.086 208.676 154.906 208.067 154.906C207.253 154.906 206.472 155.228 205.895 155.803C205.319 156.378 204.993 157.158 204.991 157.972V157.972Z" fill="#FFDE34" stroke="#263238" stroke-linecap="round" stroke-linejoin="round"/>
<path d="M191.828 157.972C191.826 158.581 192.004 159.177 192.341 159.684C192.678 160.191 193.157 160.587 193.719 160.822C194.281 161.056 194.9 161.119 195.498 161.001C196.095 160.884 196.645 160.592 197.076 160.162C197.507 159.732 197.802 159.184 197.921 158.587C198.041 157.99 197.98 157.37 197.748 156.808C197.515 156.245 197.121 155.764 196.615 155.425C196.109 155.086 195.513 154.906 194.904 154.906C194.09 154.906 193.309 155.228 192.733 155.803C192.156 156.378 191.831 157.158 191.828 157.972V157.972Z" fill="#FFDE34" stroke="#263238" stroke-linecap="round" stroke-linejoin="round"/>
<path d="M340.691 201.208C341.076 201.924 341.63 202.534 342.305 202.985C347.303 206.972 352.417 210.796 357.646 214.458C359.563 215.801 361.556 217.188 363.409 218.694C374.546 226.147 367.742 227.967 374.546 243.741C376.149 247.511 375.857 265.982 375.857 265.982H376.409C377.713 264.695 379.099 263.494 380.558 262.385V262.385C380.76 262.25 380.97 262.127 381.187 262.017V262.017C381.39 261.912 381.61 261.843 381.837 261.811C382.92 261.746 387.048 262.244 391.219 261.974L392.302 261.887C392.909 261.822 393.505 261.746 394.1 261.638C394.696 261.529 395.27 261.41 395.823 261.259C399.781 259.989 403.662 258.492 407.447 256.774V256.774L409.332 255.961L410.264 255.56L411.109 255.192L411.716 254.932L412.301 254.683C413.287 254.271 414.207 253.892 415.052 253.599C415.44 253.46 415.834 253.341 416.233 253.242C416.233 254.13 416.374 255.04 416.493 255.929C417.013 260.164 418.172 264.075 420.242 264.595C420.284 264.606 420.329 264.606 420.372 264.595C420.554 264.629 420.739 264.648 420.924 264.65H421.087C421.545 264.64 421.999 264.556 422.43 264.4V264.4C424.308 263.599 425.843 262.16 426.763 260.338C427.175 259.569 427.405 258.717 427.435 257.846C427.435 254.694 428.313 236.092 428.313 230.676C428.313 225.259 427.229 215.779 424.532 212.259C423.477 210.766 422.146 209.489 420.61 208.499C418.633 206.852 416.366 205.588 413.926 204.773C411.044 203.83 404.598 201.425 400.102 199.724L406.895 202.346C405.172 205.293 401.478 209.929 394.815 210.525C388.554 211.056 384.675 205.39 382.693 201.252C382.519 201.317 371.621 199.248 369.097 199.367C360.874 199.724 354.168 195.272 351.135 193.506C350.22 192.959 349.193 192.626 348.131 192.532C347.07 192.438 346 192.585 345.003 192.962C344.006 193.339 343.108 193.937 342.374 194.71C341.64 195.483 341.091 196.412 340.767 197.427V197.525C340.293 198.702 340.266 200.012 340.691 201.208V201.208Z" fill="#FFDE34" stroke="#263238" stroke-linecap="round" stroke-linejoin="round"/>
<path d="M382.814 201.316L383.31 201.143L382.814 201.316Z" fill="white" stroke="#263238" stroke-linecap="round" stroke-linejoin="round"/>
<path d="M373.571 270.749C373.566 270.792 373.566 270.835 373.571 270.879C373.615 270.983 373.682 271.077 373.767 271.152C373.852 271.227 373.952 271.283 374.062 271.314C374.171 271.345 374.286 271.351 374.397 271.332C374.509 271.313 374.616 271.269 374.708 271.204C375.207 270.922 375.976 269.113 375.976 269.113L376.832 268.224L377.395 267.629C377.308 267.845 376.626 269.503 376.983 270.272C377.001 270.325 377.031 270.373 377.07 270.413C377.309 270.733 377.62 270.992 377.977 271.171C378.335 271.35 378.729 271.442 379.128 271.442V271.442C379.594 271.442 380.959 271.604 382.151 271.68H382.281C382.642 271.7 383.003 271.7 383.364 271.68C384.326 271.557 385.254 271.244 386.094 270.759C388 270.479 389.878 270.034 391.706 269.427L392.031 269.254L392.324 269.08C392.516 268.964 392.694 268.826 392.854 268.669C393.515 268.118 394.075 267.459 394.512 266.719V266.719C394.512 266.719 398.91 266.534 404.815 266.079C406.981 265.917 409.321 265.711 411.748 265.473C415.475 265.094 418.552 265.115 420.967 264.779H421.141C421.617 264.714 422.062 264.628 422.484 264.53C423.515 264.329 424.469 263.841 425.235 263.122C426.001 262.404 426.55 261.484 426.818 260.468C426.959 259.987 427.075 259.498 427.164 259.005L425.279 255.755C424.297 254.967 423.201 254.331 422.029 253.87C420.211 253.109 418.203 252.924 416.276 253.339C415.877 253.438 415.483 253.558 415.096 253.697C414.251 254.022 413.33 254.401 412.344 254.78L411.748 255.029L411.141 255.289L410.296 255.658C405.475 257.651 399.723 260.218 395.877 261.302C394.722 261.604 393.545 261.814 392.356 261.93L391.273 262.017C387.102 262.288 382.985 261.789 381.891 261.854C380.797 261.919 378.121 264.465 376.409 266.036C375.943 266.469 375.532 266.827 375.25 267.044L375.12 267.152L375.022 267.239C374.402 267.875 373.967 268.669 373.766 269.535C373.766 269.535 373.766 269.535 373.766 269.535C373.68 269.825 373.622 270.123 373.592 270.424C373.573 270.531 373.565 270.64 373.571 270.749V270.749Z" fill="white" stroke="#263238" stroke-linecap="round" stroke-linejoin="round"/>
<path d="M373.571 270.749C373.566 270.792 373.566 270.836 373.571 270.879C373.616 270.983 373.684 271.075 373.769 271.149C373.855 271.223 373.956 271.277 374.065 271.308C374.174 271.338 374.288 271.343 374.4 271.323C374.511 271.303 374.616 271.259 374.708 271.193C375.244 270.571 375.673 269.865 375.976 269.102L376.832 268.225L377.395 267.64C377.319 267.813 376.615 269.503 376.973 270.283C376.991 270.336 377.02 270.384 377.059 270.424C377.179 270.584 377.318 270.729 377.471 270.857C377.938 271.232 378.518 271.439 379.118 271.442V271.442C379.594 271.442 380.949 271.594 382.129 271.68H382.281C382.642 271.7 383.004 271.7 383.364 271.68C384.32 271.553 385.243 271.244 386.084 270.77C387.989 270.485 389.867 270.036 391.695 269.427L392.01 269.275L392.302 269.102C392.489 268.979 392.667 268.841 392.833 268.69C393.503 268.136 394.071 267.468 394.512 266.719V266.719C394.512 266.719 398.781 266.534 404.566 266.09C406.732 265.928 409.235 265.711 411.748 265.462C415.172 265.126 417.999 265.029 420.285 264.671L420.989 264.541L421.802 264.357C421.989 263.029 421.852 261.676 421.401 260.414C420.981 259.348 420.33 258.389 419.494 257.606C418.659 256.823 417.66 256.235 416.569 255.885V255.885C415.216 255.388 413.829 254.986 412.42 254.683L411.835 254.932L411.228 255.192L410.383 255.56C405.476 257.673 399.788 260.229 395.931 261.28C394.777 261.584 393.599 261.791 392.41 261.898L391.327 261.984C387.156 262.266 383.039 261.768 381.945 261.833C380.851 261.898 378.186 264.433 376.528 266.004C376.152 266.363 375.758 266.703 375.348 267.022L375.218 267.119L375.12 267.206C374.488 267.834 374.051 268.632 373.863 269.503C373.778 269.793 373.72 270.09 373.69 270.391C373.635 270.505 373.595 270.625 373.571 270.749V270.749Z" fill="white" stroke="#263238" stroke-linecap="round" stroke-linejoin="round"/>
<path d="M386.539 267.867C386.539 267.867 384.079 269.145 383.104 269.589C382.129 270.034 382.216 271.821 382.216 271.821" fill="white"/>
<path d="M386.539 267.867C386.539 267.867 384.079 269.145 383.104 269.589C382.129 270.034 382.216 271.821 382.216 271.821" stroke="#263238" stroke-linecap="round" stroke-linejoin="round"/>
<path d="M383.906 266.134C382.359 267.238 380.869 268.42 379.443 269.676C379.234 269.921 379.098 270.219 379.051 270.537C379.003 270.854 379.045 271.179 379.172 271.474" fill="white"/>
<path d="M383.906 266.134C382.359 267.238 380.869 268.42 379.443 269.676C379.234 269.921 379.098 270.219 379.051 270.537C379.003 270.854 379.045 271.179 379.172 271.474" stroke="#263238" stroke-linecap="round" stroke-linejoin="round"/>
<path d="M377.428 267.618C378.709 266.244 380.066 264.942 381.49 263.718Z" fill="white"/>
<path d="M377.428 267.618C378.709 266.244 380.066 264.942 381.49 263.718" stroke="#263238" stroke-linecap="round" stroke-linejoin="round"/>
<path d="M382.823 201.338C384.784 205.466 388.673 211.088 394.935 210.601C401.565 210.037 405.291 205.368 407.014 202.411C404.631 201.501 402.215 200.569 400.232 199.789C400.232 197.774 400.297 195.358 400.514 192.964C400.514 192.444 400.622 191.88 400.676 191.393C400.73 190.905 400.795 190.559 400.86 190.158H388.261C388.261 190.158 388.337 190.656 388.434 191.49C388.51 192.238 388.608 193.235 388.684 194.361C388.781 195.856 388.846 197.611 388.803 199.269C388.196 199.475 387.579 199.702 386.961 199.941L385.769 200.352C385.293 200.526 384.827 200.677 384.329 200.84L383.245 201.165C383.101 201.214 382.96 201.272 382.823 201.338V201.338Z" fill="white" stroke="#263238" stroke-linecap="round" stroke-linejoin="round"/>
<path d="M400.676 191.35C400.676 191.35 398.326 197.46 394.913 198.5C391.5 199.54 388.413 191.491 388.413 191.491C388.413 191.491 393.223 196.626 395.01 195.824C396.798 195.022 400.655 191.393 400.655 191.393" fill="#263238"/>
<path d="M402.702 157.603C405.886 160.469 408.41 163.992 410.102 167.928C411.651 171.178 412.962 174.915 411.77 178.317C411.057 180.006 410.048 181.554 408.791 182.889C406.451 185.695 403.168 193.527 400.828 196.333C400.676 191.339 404.858 183.268 404.414 179.075C403.876 175.836 402.811 172.707 401.261 169.813C399.685 166.017 397.624 162.441 395.13 159.174C393.71 157.462 389.149 154.418 393.754 154.05C396.809 153.801 400.395 155.707 402.702 157.603Z" fill="#263238" stroke="#263238" stroke-linecap="round" stroke-linejoin="round"/>
<path d="M405.649 174.634C405.649 174.634 407.263 171.503 408.964 174.471C410.188 176.638 408.422 180.05 407.664 181.318C407.412 181.679 407.071 181.968 406.675 182.158C406.278 182.348 405.839 182.432 405.4 182.401L405.649 174.634Z" fill="white" stroke="#263238" stroke-linecap="round" stroke-linejoin="round"/>
<path d="M384.437 185.944C385.472 187.99 386.821 189.861 388.434 191.49L389.409 192.498C391.424 194.491 393.602 196.073 395.032 195.748C396.278 195.499 397.903 194.22 399.495 192.585C399.896 192.184 400.286 191.75 400.676 191.317C402.41 189.42 403.899 187.313 405.107 185.044C405.443 184.194 405.658 183.3 405.746 182.39C406.02 179.677 406.114 176.948 406.028 174.222C406.028 173.258 406.028 172.488 406.028 172.055C406.028 170.17 398.965 163.616 398.965 163.616C398.774 163.546 398.57 163.524 398.369 163.551C397.154 163.772 395.983 164.189 394.902 164.786C390.623 166.866 384.653 170.993 384.22 172.564C383.559 174.85 383.808 183.907 384.437 185.944Z" fill="white" stroke="#263238" stroke-linecap="round" stroke-linejoin="round"/>
<path d="M398.466 177.255C398.466 178.014 398.748 178.631 399.062 178.631C399.376 178.631 399.69 178.035 399.69 177.255C399.69 176.475 399.409 175.858 399.062 175.858C398.715 175.858 398.466 176.497 398.466 177.255Z" fill="#263238"/>
<path d="M390.395 175.869C390.049 175.869 389.767 176.486 389.767 177.255C389.767 178.025 390.049 178.631 390.395 178.631C390.742 178.631 391.024 178.014 391.024 177.255C391.024 176.497 390.742 175.869 390.395 175.869Z" fill="#263238"/>
<path d="M402.496 173.843C402.496 173.843 401.413 171.676 397.578 172.337" stroke="#263238" stroke-linecap="round" stroke-linejoin="round"/>
<path d="M386.831 173.843C386.831 173.843 387.914 171.676 391.75 172.337" stroke="#263238" stroke-linecap="round" stroke-linejoin="round"/>
<path d="M393.927 182.553C393.537 182.528 393.166 182.379 392.867 182.128C392.569 181.876 392.359 181.535 392.269 181.155C392.269 181.155 394.371 177.905 393.732 174.72" stroke="#263238" stroke-linecap="round" stroke-linejoin="round"/>
<path d="M407.014 167.05C407.887 168.234 408.547 169.561 408.964 170.972" stroke="white" stroke-linecap="round" stroke-linejoin="round"/>
<path d="M397.957 158.383C397.957 158.383 399.16 160.377 404.457 164.439C404.799 164.686 405.124 164.954 405.432 165.241" stroke="white" stroke-linecap="round" stroke-linejoin="round"/>
<path d="M414.944 221.9C415.666 232.199 416.389 242.506 417.111 252.819V252.028" fill="#263238"/>
<path d="M414.944 221.9C415.666 232.199 416.389 242.506 417.111 252.819V252.028" stroke="#263238" stroke-linecap="round" stroke-linejoin="round"/>
<path d="M346.509 187.894C345.529 187.511 344.471 187.374 343.427 187.495C342.383 187.616 341.384 187.991 340.518 188.587C338.79 189.811 337.532 191.588 336.953 193.625C336.263 195.653 336.332 197.863 337.148 199.843C337.571 200.82 338.25 201.663 339.115 202.283C339.979 202.903 340.996 203.277 342.056 203.364C343.636 203.344 345.163 202.79 346.389 201.793C350.441 198.76 352.467 190.461 346.509 187.894Z" fill="white" stroke="#263238" stroke-linecap="round" stroke-linejoin="round"/>
<path d="M337.539 153.302C337.539 153.432 337.539 154.288 337.463 154.44C337.084 156.108 336.282 160.279 338.308 161.124C337.539 163.865 335.654 181.773 335.903 190.905C335.968 193.636 336.444 196.875 338.893 198.045C343.02 200.006 346.942 195.228 346.476 191.49C345.75 186.388 346 181.188 345.393 176.031C344.732 170.679 343.519 165.198 344.851 159.965C345.176 159.607 347.256 155.48 347.939 154.342C348.245 153.856 348.485 153.332 348.654 152.782C348.92 150.913 349.051 149.026 349.044 147.138C348.426 145.968 347.625 147.051 347.202 147.821C346.858 148.758 346.739 149.764 346.855 150.756C346.896 150.999 346.862 151.248 346.758 151.471C346.667 151.599 346.544 151.7 346.401 151.765C346.259 151.83 346.101 151.855 345.945 151.84C344.613 151.645 344.667 150.529 344.689 149.673C344.689 146.802 344.689 143.931 344.689 141.082C344.689 140.605 344.537 139.316 344.082 139.273C343.627 139.23 342.945 139.598 342.88 141.125C342.804 142.848 342.804 148.156 342.804 148.156C342.761 148.2 342.707 148.232 342.649 148.249C342.59 148.266 342.527 148.268 342.468 148.254C342.36 148.254 342.316 148.059 342.273 147.951C341.634 145.285 340.984 142.62 340.344 139.955C340.269 139.641 339.803 138.991 339.467 138.991C338.665 138.991 338.644 139.923 338.6 140.194C338.319 141.624 340.323 147.517 340.659 148.861C340.659 149.099 340.659 149.456 340.409 149.391L337.268 143.054C337.122 142.684 336.893 142.352 336.598 142.085C336.303 141.818 335.95 141.623 335.567 141.515C335.514 141.499 335.457 141.499 335.404 141.515C335.348 141.548 335.303 141.597 335.274 141.656C334.971 142.198 335.274 142.945 335.448 143.541C335.621 144.137 337.972 148.514 338.806 150.28C338.925 150.529 339.12 151.092 338.882 151.363C338.644 151.634 338.21 151.114 338.037 150.756C337.506 149.673 337.008 148.655 336.52 147.593C336.369 147.279 336.141 146.835 335.784 146.911C333.671 147.366 336.672 151.796 337.539 153.302Z" fill="white" stroke="#263238" stroke-linecap="round" stroke-linejoin="round"/>
<path d="M343.367 152.371C342.276 153.235 341.329 154.266 340.561 155.426C340.182 156.009 339.929 156.664 339.817 157.351C339.705 158.037 339.737 158.739 339.911 159.412C339.964 159.588 340.033 159.759 340.117 159.922" fill="white"/>
<path d="M343.367 152.371C342.276 153.235 341.329 154.266 340.561 155.426C340.182 156.009 339.929 156.664 339.817 157.351C339.705 158.037 339.737 158.739 339.911 159.412C339.964 159.588 340.033 159.759 340.117 159.922" stroke="#263238" stroke-linecap="round" stroke-linejoin="round"/>
<path d="M373.885 220.048C372.739 222.359 371.967 224.839 371.599 227.393C371.285 229.949 371.187 231.954 372.932 239.136" stroke="#263238" stroke-linecap="round" stroke-linejoin="round"/>
<path d="M398.336 161.991C398.485 162.434 398.522 162.906 398.445 163.367C398.239 163.946 397.861 164.449 397.361 164.808C393.899 167.842 390.025 170.373 385.856 172.326C385.333 172.462 384.88 172.789 384.585 173.242C384.291 173.694 384.176 174.241 384.263 174.774V183.149C384.21 184.012 384.294 184.879 384.513 185.716C385.119 187.666 386.463 189.237 387.438 191.036C388.429 192.741 388.931 194.686 388.889 196.658C389.16 194.589 381.923 190.58 379.963 182.434C379.692 181.285 374.058 174.449 377.438 166.422C380.688 158.719 385.802 155.404 387.524 155.003C388.694 154.661 389.927 154.603 391.124 154.833C392.32 155.063 393.444 155.574 394.404 156.325C396.297 157.735 397.678 159.724 398.336 161.991V161.991Z" fill="#263238" stroke="#263238" stroke-linecap="round" stroke-linejoin="round"/>
<path d="M391.24 185.467C391.858 185.597 392.486 185.716 393.115 185.792C395.281 186.063 397.6 185.727 399.019 184.146C398.91 185.565 397.935 190.927 395.021 191.079C392.107 191.231 391.24 185.467 391.24 185.467Z" stroke="#263238" stroke-linecap="round" stroke-linejoin="round"/>
<path d="M394.057 158.719C392.807 161.556 390.817 164.003 388.294 165.804C386.463 167.115 384.372 168.057 382.693 169.553C380.526 171.535 379.107 174.677 379.941 177.526" stroke="white" stroke-linecap="round" stroke-linejoin="round"/>
<path d="M371.415 202.487C373.502 204.162 374.877 206.566 375.261 209.214C375.634 211.503 375.353 213.85 374.448 215.985" stroke="#263238" stroke-linecap="round" stroke-linejoin="round"/>
<path d="M411.77 220.362C411.943 223.2 413.709 225.659 415.421 227.945Z" fill="#263238"/>
<path d="M411.77 220.362C411.943 223.2 413.709 225.659 415.421 227.945" stroke="#263238" stroke-linecap="round" stroke-linejoin="round"/>
<path d="M415.995 242.062C415.135 243.502 413.983 244.747 412.614 245.717C411.244 246.687 409.688 247.361 408.043 247.695" stroke="#263238" stroke-linecap="round" stroke-linejoin="round"/>
<path d="M374.546 243.751C374.546 243.751 377.46 248.085 387.362 248.995" stroke="#263238" stroke-linecap="round" stroke-linejoin="round"/>
</svg>
