<svg width="72" height="72" viewBox="0 0 72 72" fill="none" xmlns="http://www.w3.org/2000/svg">
<path d="M33.4082 55.008C46.1329 55.008 56.4482 44.6926 56.4482 31.968C56.4482 19.2433 46.1329 8.92798 33.4082 8.92798C20.6836 8.92798 10.3682 19.2433 10.3682 31.968C10.3682 44.6926 20.6836 55.008 33.4082 55.008Z" stroke="white" stroke-width="4"/>
<path d="M40.2881 29.4561C42.4972 29.4561 44.2881 27.6651 44.2881 25.4561C44.2881 23.2469 42.4972 21.4561 40.2881 21.4561C38.0789 21.4561 36.2881 23.2469 36.2881 25.4561C36.2881 27.6651 38.0789 29.4561 40.2881 29.4561Z" fill="white"/>
<path d="M24.7358 29.4561C26.945 29.4561 28.7358 27.6651 28.7358 25.4561C28.7358 23.2469 26.945 21.4561 24.7358 21.4561C22.5267 21.4561 20.7358 23.2469 20.7358 25.4561C20.7358 27.6651 22.5267 29.4561 24.7358 29.4561Z" fill="white"/>
<path d="M25.416 37.0081C29.6374 41.7608 38.0846 40.4841 40.968 37.0081" stroke="white" stroke-width="3" stroke-linecap="round"/>
<path d="M51.4385 49.824L63.6574 62.0428" stroke="white" stroke-width="7" stroke-linecap="round"/>
</svg>
