<svg width="72" height="72" viewBox="0 0 72 72" fill="none" xmlns="http://www.w3.org/2000/svg">
<path d="M33.408 55.008C46.1327 55.008 56.448 44.6926 56.448 31.968C56.448 19.2433 46.1327 8.92798 33.408 8.92798C20.6834 8.92798 10.368 19.2433 10.368 31.968C10.368 44.6926 20.6834 55.008 33.408 55.008Z" stroke="black" stroke-width="5"/>
<path d="M40.968 30.8161C43.5527 30.8161 45.648 28.7207 45.648 26.1361C45.648 23.5514 43.5527 21.4561 40.968 21.4561C38.3833 21.4561 36.288 23.5514 36.288 26.1361C36.288 28.7207 38.3833 30.8161 40.968 30.8161Z" fill="black"/>
<path d="M25.416 30.8161C28.0007 30.8161 30.096 28.7207 30.096 26.1361C30.096 23.5514 28.0007 21.4561 25.416 21.4561C22.8313 21.4561 20.736 23.5514 20.736 26.1361C20.736 28.7207 22.8313 30.8161 25.416 30.8161Z" fill="black"/>
<path d="M25.416 37.0081C29.6374 41.7608 38.0846 40.4841 40.968 37.0081" stroke="black" stroke-width="4" stroke-linecap="round"/>
<path d="M51.4387 49.824L63.6576 62.0428" stroke="black" stroke-width="8" stroke-linecap="round"/>
</svg>
