<svg width="702" height="402" viewBox="0 0 702 402" fill="none" xmlns="http://www.w3.org/2000/svg">
<path d="M456.958 259.079H237.784L251.924 222.381H442.818L456.958 259.079Z" fill="white" stroke="#263238" stroke-linecap="round" stroke-linejoin="round"/>
<path d="M263.456 230.532H255.133L256.834 225.814H264.998L263.456 230.532Z" fill="white" stroke="#263238" stroke-linecap="round" stroke-linejoin="round"/>
<path d="M275.192 230.532H266.88L268.366 225.814H276.53L275.192 230.532Z" fill="white" stroke="#263238" stroke-linecap="round" stroke-linejoin="round"/>
<path d="M286.939 230.532H278.616L279.886 225.814H288.051L286.939 230.532Z" fill="white" stroke="#263238" stroke-linecap="round" stroke-linejoin="round"/>
<path d="M298.675 230.532H290.364L291.418 225.814H299.582L298.675 230.532Z" fill="white" stroke="#263238" stroke-linecap="round" stroke-linejoin="round"/>
<path d="M310.423 230.532H302.112L302.939 225.814H311.104L310.423 230.532Z" fill="white" stroke="#263238" stroke-linecap="round" stroke-linejoin="round"/>
<path d="M322.169 230.532H313.846L314.47 225.814H322.634L322.169 230.532Z" fill="white" stroke="#263238" stroke-linecap="round" stroke-linejoin="round"/>
<path d="M333.906 230.532H325.595L325.991 225.814H334.156L333.906 230.532Z" fill="white" stroke="#263238" stroke-linecap="round" stroke-linejoin="round"/>
<path d="M345.654 230.532H337.331L337.524 225.814H345.688L345.654 230.532Z" fill="white" stroke="#263238" stroke-linecap="round" stroke-linejoin="round"/>
<path d="M357.401 230.532H349.078L349.044 225.814H357.208L357.401 230.532Z" fill="white" stroke="#263238" stroke-linecap="round" stroke-linejoin="round"/>
<path d="M369.137 230.532H360.814L360.576 225.814H368.74L369.137 230.532Z" fill="white" stroke="#263238" stroke-linecap="round" stroke-linejoin="round"/>
<path d="M380.885 230.532H372.562L372.097 225.814H380.261L380.885 230.532Z" fill="white" stroke="#263238" stroke-linecap="round" stroke-linejoin="round"/>
<path d="M392.62 230.532H384.309L383.628 225.814H391.792L392.62 230.532Z" fill="white" stroke="#263238" stroke-linecap="round" stroke-linejoin="round"/>
<path d="M404.367 230.532H396.044L395.148 225.814H403.313L404.367 230.532Z" fill="white" stroke="#263238" stroke-linecap="round" stroke-linejoin="round"/>
<path d="M416.104 230.532H407.792L406.669 225.814H414.834L416.104 230.532Z" fill="white" stroke="#263238" stroke-linecap="round" stroke-linejoin="round"/>
<path d="M427.852 230.532H419.54L418.202 225.814H426.366L427.852 230.532Z" fill="white" stroke="#263238" stroke-linecap="round" stroke-linejoin="round"/>
<path d="M439.599 230.532H431.276L429.734 225.814H437.898L439.599 230.532Z" fill="white" stroke="#263238" stroke-linecap="round" stroke-linejoin="round"/>
<path d="M259.974 241.12H251.323L253.16 236.006H261.664L259.974 241.12Z" fill="white" stroke="#263238" stroke-linecap="round" stroke-linejoin="round"/>
<path d="M272.209 241.12H263.546L265.156 236.006H273.649L272.209 241.12Z" fill="white" stroke="#263238" stroke-linecap="round" stroke-linejoin="round"/>
<path d="M284.433 241.12H275.77L277.153 236.006H285.646L284.433 241.12Z" fill="white" stroke="#263238" stroke-linecap="round" stroke-linejoin="round"/>
<path d="M296.668 241.12H288.005L289.151 236.006H297.644L296.668 241.12Z" fill="white" stroke="#263238" stroke-linecap="round" stroke-linejoin="round"/>
<path d="M308.892 241.12H300.229L301.136 236.006H309.64L308.892 241.12Z" fill="white" stroke="#263238" stroke-linecap="round" stroke-linejoin="round"/>
<path d="M321.126 241.12H312.463L313.132 236.006H321.625L321.126 241.12Z" fill="white" stroke="#263238" stroke-linecap="round" stroke-linejoin="round"/>
<path d="M333.351 241.12H324.687L325.13 236.006H333.623L333.351 241.12Z" fill="white" stroke="#263238" stroke-linecap="round" stroke-linejoin="round"/>
<path d="M345.584 241.12H336.921L337.114 236.006H345.618L345.584 241.12Z" fill="white" stroke="#263238" stroke-linecap="round" stroke-linejoin="round"/>
<path d="M357.809 241.12H349.146L349.112 236.006H357.605L357.809 241.12Z" fill="white" stroke="#263238" stroke-linecap="round" stroke-linejoin="round"/>
<path d="M370.033 241.12H361.381L361.109 236.006H369.602L370.033 241.12Z" fill="white" stroke="#263238" stroke-linecap="round" stroke-linejoin="round"/>
<path d="M382.267 241.12H373.604L373.105 236.006H381.598L382.267 241.12Z" fill="white" stroke="#263238" stroke-linecap="round" stroke-linejoin="round"/>
<path d="M394.491 241.12H385.828L385.091 236.006H393.595L394.491 241.12Z" fill="white" stroke="#263238" stroke-linecap="round" stroke-linejoin="round"/>
<path d="M406.725 241.12H398.062L397.087 236.006H405.58L406.725 241.12Z" fill="white" stroke="#263238" stroke-linecap="round" stroke-linejoin="round"/>
<path d="M418.95 241.12H410.286L409.084 236.006H417.577L418.95 241.12Z" fill="white" stroke="#263238" stroke-linecap="round" stroke-linejoin="round"/>
<path d="M431.184 241.12H422.521L421.069 236.006H429.574L431.184 241.12Z" fill="white" stroke="#263238" stroke-linecap="round" stroke-linejoin="round"/>
<path d="M443.408 241.12H434.745L433.066 236.006H441.559L443.408 241.12Z" fill="white" stroke="#263238" stroke-linecap="round" stroke-linejoin="round"/>
<path d="M256.21 252.62H247.173L249.18 247.05H258.036L256.21 252.62Z" fill="white" stroke="#263238" stroke-linecap="round" stroke-linejoin="round"/>
<path d="M268.967 252.62H259.93L261.676 247.05H270.532L268.967 252.62Z" fill="white" stroke="#263238" stroke-linecap="round" stroke-linejoin="round"/>
<path d="M281.723 252.62H272.686L274.183 247.05H283.039L281.723 252.62Z" fill="white" stroke="#263238" stroke-linecap="round" stroke-linejoin="round"/>
<path d="M371.019 252.62H285.443L286.679 247.05H370.543L371.019 252.62Z" fill="white" stroke="#263238" stroke-linecap="round" stroke-linejoin="round"/>
<path d="M383.775 252.62H374.738L374.194 247.05H383.05L383.775 252.62Z" fill="white" stroke="#263238" stroke-linecap="round" stroke-linejoin="round"/>
<path d="M396.532 252.62H387.495L386.69 247.05H395.546L396.532 252.62Z" fill="white" stroke="#263238" stroke-linecap="round" stroke-linejoin="round"/>
<path d="M409.289 252.62H400.251L399.197 247.05H408.041L409.289 252.62Z" fill="white" stroke="#263238" stroke-linecap="round" stroke-linejoin="round"/>
<path d="M422.046 252.62H413.008L411.693 247.05H420.549L422.046 252.62Z" fill="white" stroke="#263238" stroke-linecap="round" stroke-linejoin="round"/>
<path d="M434.801 252.62H425.763L424.187 247.05H433.043L434.801 252.62Z" fill="white" stroke="#263238" stroke-linecap="round" stroke-linejoin="round"/>
<path d="M447.559 252.62H438.522L436.696 247.05H445.552L447.559 252.62Z" fill="white" stroke="#263238" stroke-linecap="round" stroke-linejoin="round"/>
<path d="M456.811 259.078H237.784V262.259H456.811V259.078Z" fill="white" stroke="#263238" stroke-linecap="round" stroke-linejoin="round"/>
<path d="M54.7819 389.835V285.226H663.172L663.977 395.814L646.594 392.14L646.764 313.617H73.0039L73.0379 388.923L54.7819 389.835Z" fill="white"/>
<path d="M54.8607 396.821V275.2H663.773V399.798" stroke="#263238" stroke-linecap="round" stroke-linejoin="round"/>
<path d="M663.172 285.226H54.9175V295.045H663.172V285.226Z" fill="#263238" stroke="#263238" stroke-linecap="round" stroke-linejoin="round"/>
<path d="M73.0035 395.622V313.617H646.764V401" stroke="#263238" stroke-linecap="round" stroke-linejoin="round"/>
<path d="M672.765 269.596H33.7136V285.322H672.765V269.596Z" fill="#CCCCCC" stroke="#263238" stroke-linecap="round" stroke-linejoin="round"/>
<path d="M672.765 269.535H33.7134L81.6439 199.067H624.834L672.765 269.535Z" fill="white" stroke="#263238" stroke-linecap="round" stroke-linejoin="round"/>
<path d="M600.648 193.569L610.649 206.69C611.194 207.407 611.599 208.23 611.841 209.114C612.082 209.997 612.156 210.923 612.057 211.837C611.957 212.75 611.688 213.634 611.263 214.436C610.838 215.239 610.267 215.944 609.583 216.51L586.474 235.586L535.448 216.378L557.831 201.684C558.595 201.185 559.254 200.524 559.766 199.743C560.278 198.962 560.633 198.078 560.809 197.145C560.984 196.213 560.977 195.252 560.786 194.323C560.596 193.394 560.227 192.516 559.702 191.744L553.59 182.765L600.648 193.569Z" fill="#263238" stroke="#263238" stroke-linecap="round" stroke-linejoin="round"/>
<path d="M491.793 1L701 36.9063V219.979L694.763 221.78L485.556 170.868V2.80072L491.793 1Z" fill="white" stroke="#263238" stroke-linecap="round" stroke-linejoin="round"/>
<path d="M485.556 170.868L694.763 221.781V38.7076L485.556 2.80127V170.868Z" fill="#263238" stroke="#263238" stroke-linecap="round" stroke-linejoin="round"/>
<path d="M491.225 167.194L689.093 215.85V42.3806L491.225 8.7312V167.194Z" fill="#FFDE34" stroke="#263238" stroke-linecap="round" stroke-linejoin="round"/>
<path d="M389.593 207.711H311.976L318.439 182.753V168.479H383.118V184.169L389.593 207.711Z" fill="#263238" stroke="#263238" stroke-linecap="round" stroke-linejoin="round"/>
<path d="M467.606 2.69336H232.318V170.76H467.606V2.69336Z" fill="#263238" stroke="#263238" stroke-linecap="round" stroke-linejoin="round"/>
<path d="M461.936 7.49463H237.988V165.958H461.936V7.49463Z" fill="white" stroke="#263238" stroke-linecap="round" stroke-linejoin="round"/>
<path d="M101.351 193.569L91.35 206.69C90.8055 207.407 90.4011 208.232 90.1603 209.116C89.9195 210 89.8471 210.925 89.9473 211.839C90.0476 212.753 90.3184 213.636 90.7442 214.438C91.1699 215.24 91.742 215.945 92.4273 216.51L115.525 235.586L166.551 216.378L144.168 201.684C143.405 201.184 142.747 200.522 142.236 199.741C141.725 198.959 141.371 198.075 141.196 197.143C141.022 196.21 141.031 195.25 141.222 194.321C141.413 193.392 141.783 192.515 142.308 191.744L148.409 182.765L101.351 193.569Z" fill="#263238" stroke="#263238" stroke-linecap="round" stroke-linejoin="round"/>
<path d="M210.207 1L1 36.9063V219.979L7.23653 221.78L216.444 170.868V2.80072L210.207 1Z" fill="white" stroke="#263238" stroke-linecap="round" stroke-linejoin="round"/>
<path d="M216.444 170.868L7.23669 221.781V38.7076L216.444 2.80127V170.868Z" fill="#263238" stroke="#263238" stroke-linecap="round" stroke-linejoin="round"/>
<path d="M210.774 167.194L12.9062 215.85V42.3806L210.774 8.7312V167.194Z" fill="#FFDE34" stroke="#263238" stroke-linecap="round" stroke-linejoin="round"/>
<path d="M576.275 105.782C587.827 94.6928 586.865 73.6467 574.128 58.7745C561.39 43.9022 541.7 40.8356 530.148 51.9249C518.596 63.0143 519.558 84.0603 532.295 98.9325C545.033 113.805 564.723 116.871 576.275 105.782Z" fill="#263238" stroke="#263238" stroke-linecap="round" stroke-linejoin="round"/>
<path d="M570.792 74.8291L558.852 72.3201C559.619 69.5247 560.135 66.6588 560.394 63.7607C560.836 58.9588 559.26 57.9264 555.768 57.1821C552.275 56.4378 555.768 60.4594 553.999 64.0608C552.581 66.954 548.329 69.2469 546.719 70.0632V92.008L564.374 95.6695C570.327 95.9696 566.574 90.7595 566.574 90.7595C570.996 90.7595 568.343 85.5134 568.343 85.5134C572.765 85.7295 569.669 80.7115 569.669 80.7115C574.307 79.2949 570.792 74.8291 570.792 74.8291Z" fill="white" stroke="#263238" stroke-linecap="round" stroke-linejoin="round"/>
<path d="M534.359 88.7663L544.292 90.8312V69.5587L534.359 67.5059V88.7663Z" fill="white" stroke="#263238" stroke-linecap="round" stroke-linejoin="round"/>
<path d="M650.846 121.24C662.397 110.151 661.436 89.105 648.698 74.2327C635.961 59.3604 616.27 56.2938 604.719 67.3831C593.167 78.4725 594.128 99.5185 606.866 114.391C619.604 129.263 639.294 132.33 650.846 121.24Z" fill="white" stroke="#263238" stroke-linecap="round" stroke-linejoin="round"/>
<path d="M610.196 98.2989L622.125 100.772C621.357 103.568 620.837 106.433 620.571 109.331C620.129 114.133 621.705 115.166 625.209 115.898C628.713 116.63 625.209 112.633 626.978 109.019C628.384 106.138 632.647 103.845 634.258 103.017V81.0961L616.603 77.4226C610.638 77.1225 614.391 82.3446 614.391 82.3446C609.98 82.3446 612.634 87.5907 612.634 87.5907C608.212 87.3746 611.307 92.4526 611.307 92.4526C606.669 93.8332 610.196 98.2989 610.196 98.2989Z" fill="#263238" stroke="#263238" stroke-linecap="round" stroke-linejoin="round"/>
<path d="M646.617 84.361L636.684 82.2961V103.557L646.617 105.621V84.361Z" fill="#263238" stroke="#263238" stroke-linecap="round" stroke-linejoin="round"/>
<path d="M510.06 155.453L536.366 138.238L552.139 152.007L580.702 124.456L591.225 156.317L603.993 147.71L613.767 158.898L642.319 143.4L658.103 191.623L510.06 155.453Z" fill="white" stroke="#263238" stroke-linecap="round" stroke-linejoin="round"/>
<path d="M510.06 155.453L531.105 146.846L552.899 159.763L577.698 143.4L591.974 164.072L603.993 157.182L613.767 164.072L638.566 154.589L658.103 191.623L510.06 155.453Z" fill="#263238" stroke="#263238" stroke-linecap="round" stroke-linejoin="round"/>
<path d="M536.899 33.1726L572.697 39.199" stroke="#263238" stroke-linecap="round" stroke-linejoin="round"/>
<path d="M612.555 45.2246L648.341 51.251" stroke="#263238" stroke-linecap="round" stroke-linejoin="round"/>
<path d="M313.915 26.8582H259.419V36.0538H313.915V26.8582Z" fill="white" stroke="#263238" stroke-linecap="round" stroke-linejoin="round"/>
<path d="M287.064 43.5935H259.419V48.6115H287.064V43.5935Z" fill="white" stroke="#263238" stroke-linecap="round" stroke-linejoin="round"/>
<path d="M361.188 80.4477C370.068 80.4477 377.267 72.8263 377.267 63.4249C377.267 54.0235 370.068 46.4021 361.188 46.4021C352.308 46.4021 345.109 54.0235 345.109 63.4249C345.109 72.8263 352.308 80.4477 361.188 80.4477Z" fill="#263238" stroke="#263238" stroke-linecap="round" stroke-linejoin="round"/>
<path d="M371.223 65.8973L369.942 67.2658L361.403 76.2934L351.584 65.8973C350.453 64.6985 349.818 63.0734 349.819 61.3792C349.82 59.6851 350.457 58.0608 351.589 56.8637C352.722 55.6665 354.257 54.9946 355.857 54.9957C357.457 54.9969 358.991 55.671 360.122 56.8697L361.415 58.2382L362.696 56.8697C363.249 56.2464 363.915 55.7471 364.654 55.4015C365.393 55.0559 366.19 54.871 366.998 54.8577C367.806 54.8444 368.608 55.0031 369.357 55.3243C370.106 55.6455 370.786 56.1227 371.357 56.7275C371.929 57.3323 372.379 58.0525 372.683 58.8453C372.986 59.638 373.136 60.4872 373.124 61.3425C373.111 62.1977 372.936 63.0416 372.61 63.824C372.283 64.6065 371.812 65.3115 371.223 65.8973Z" fill="white" stroke="#263238" stroke-linecap="round" stroke-linejoin="round"/>
<path d="M276.382 110.088C285.263 110.088 292.461 102.466 292.461 93.065C292.461 83.6636 285.263 76.0422 276.382 76.0422C267.502 76.0422 260.304 83.6636 260.304 93.065C260.304 102.466 267.502 110.088 276.382 110.088Z" fill="#263238" stroke="#263238" stroke-linecap="round" stroke-linejoin="round"/>
<path d="M283.813 100.941C287.918 96.5951 287.918 89.5489 283.813 85.203C279.708 80.8571 273.053 80.8571 268.948 85.203C264.843 89.549 264.843 96.5951 268.948 100.941C273.053 105.287 279.708 105.287 283.813 100.941Z" fill="white" stroke="#263238" stroke-linecap="round" stroke-linejoin="round"/>
<path d="M270.305 96.4985C270.88 97.6435 271.734 98.6049 272.778 99.2833C273.821 99.9616 275.018 100.332 276.242 100.357C277.467 100.381 278.676 100.059 279.743 99.4225C280.81 98.7864 281.698 97.8598 282.313 96.7386" stroke="#263238" stroke-linecap="round" stroke-linejoin="round"/>
<path d="M273.094 93.3054C273.533 93.3054 273.888 92.2734 273.888 91.0005C273.888 89.7275 273.533 88.6956 273.094 88.6956C272.656 88.6956 272.3 89.7275 272.3 91.0005C272.3 92.2734 272.656 93.3054 273.094 93.3054Z" fill="#263238"/>
<path d="M279.818 91.0004C279.818 92.2729 279.455 93.3054 279.025 93.3054C278.594 93.3054 278.231 92.2729 278.231 91.0004C278.231 89.7279 278.582 88.7075 279.025 88.7075C279.467 88.7075 279.818 89.7399 279.818 91.0004Z" fill="#263238"/>
<path d="M420.439 40.6557C423.406 31.7946 419.027 22.0647 410.657 18.9234C402.287 15.782 393.097 20.4187 390.13 29.2798C387.162 38.1409 391.542 47.8708 399.912 51.0121C408.282 54.1535 417.472 49.5168 420.439 40.6557Z" fill="#263238" stroke="#263238" stroke-linecap="round" stroke-linejoin="round"/>
<path d="M406.955 45.9856C412.685 44.9987 416.574 39.281 415.642 33.2147C414.71 27.1484 409.309 23.0307 403.579 24.0175C397.849 25.0044 393.96 30.7222 394.892 36.7885C395.824 42.8548 401.225 46.9725 406.955 45.9856Z" fill="white" stroke="#263238" stroke-linecap="round" stroke-linejoin="round"/>
<path d="M399.129 37.0017C399.843 39.8108 401.658 42.2478 405.275 42.2478C408.892 42.2478 410.763 40.0389 411.432 37.0017H399.129Z" stroke="#263238" stroke-linecap="round" stroke-linejoin="round"/>
<path d="M402.779 32.9089C402.779 34.1814 402.428 35.2138 401.986 35.2138C401.543 35.2138 401.192 34.1814 401.192 32.9089C401.192 31.6364 401.555 30.604 401.986 30.604C402.417 30.604 402.779 31.6364 402.779 32.9089Z" fill="#263238"/>
<path d="M408.71 32.9089C408.71 34.1814 408.347 35.2138 407.916 35.2138C407.485 35.2138 407.122 34.1814 407.122 32.9089C407.122 31.6364 407.474 30.604 407.916 30.604C408.358 30.604 408.71 31.6364 408.71 32.9089Z" fill="#263238"/>
<path d="M319.188 97.0619C328.068 97.0619 335.267 89.4406 335.267 80.0391C335.267 70.6377 328.068 63.0164 319.188 63.0164C310.308 63.0164 303.109 70.6377 303.109 80.0391C303.109 89.4406 310.308 97.0619 319.188 97.0619Z" fill="#263238" stroke="#263238" stroke-linecap="round" stroke-linejoin="round"/>
<path d="M328.966 84.1822C331.122 78.4756 328.5 71.9993 323.11 69.7168C317.72 67.4344 311.602 70.2101 309.447 75.9167C307.291 81.6232 309.913 88.0996 315.303 90.382C320.693 92.6645 326.81 89.8887 328.966 84.1822Z" fill="white" stroke="#263238" stroke-linecap="round" stroke-linejoin="round"/>
<path d="M313.109 87.3268C313.686 86.1821 314.541 85.2212 315.586 84.5432C316.63 83.8653 317.827 83.495 319.052 83.4705C320.277 83.4461 321.487 83.7683 322.555 84.404C323.623 85.0397 324.512 85.9659 325.129 87.0867" stroke="#263238" stroke-linecap="round" stroke-linejoin="round"/>
<path d="M316.682 77.9736C316.682 79.2461 316.331 80.2785 315.888 80.2785C315.446 80.2785 315.106 79.2461 315.106 77.9736C315.106 76.7011 315.457 75.6807 315.888 75.6807C316.319 75.6807 316.682 76.7131 316.682 77.9736Z" fill="#263238"/>
<path d="M321.818 80.2795C322.257 80.2795 322.612 79.2476 322.612 77.9746C322.612 76.7016 322.257 75.6697 321.818 75.6697C321.38 75.6697 321.025 76.7016 321.025 77.9746C321.025 79.2476 321.38 80.2795 321.818 80.2795Z" fill="#263238"/>
<path d="M290.012 113.833H261.007V130.556H290.012V113.833Z" fill="#FFDE34" stroke="#263238" stroke-linecap="round" stroke-linejoin="round"/>
<path d="M333.521 101.12H304.515V130.556H333.521V101.12Z" fill="#FFDE34" stroke="#263238" stroke-linecap="round" stroke-linejoin="round"/>
<path d="M377.029 84.3979H348.023V130.556H377.029V84.3979Z" fill="#FFDE34" stroke="#263238" stroke-linecap="round" stroke-linejoin="round"/>
<path d="M420.549 56.9663H391.543V130.556H420.549V56.9663Z" fill="#FFDE34" stroke="#263238" stroke-linecap="round" stroke-linejoin="round"/>
<path d="M446.716 73.7999C451.056 69.2055 451.056 61.7565 446.716 57.1621C442.377 52.5677 435.341 52.5677 431.001 57.1621C426.662 61.7565 426.662 69.2055 431.001 73.7999C435.341 78.3943 442.377 78.3943 446.716 73.7999Z" fill="white" stroke="#263238" stroke-linecap="round" stroke-linejoin="round"/>
<path d="M445.132 62.7165H440.879C441.143 61.6778 441.325 60.6178 441.424 59.5473C441.583 57.7946 441.027 57.5425 439.768 57.5425C438.51 57.5425 439.768 58.743 439.145 60.1355C438.477 61.2247 437.586 62.1399 436.537 62.8126V70.6397H442.841C444.973 70.3156 443.635 68.7309 443.635 68.7309C445.211 68.3948 444.259 66.7261 444.259 66.7261C445.835 66.474 444.735 64.8894 444.735 64.8894C444.953 64.8408 445.153 64.725 445.31 64.5566C445.466 64.3881 445.572 64.1745 445.615 63.9425C445.657 63.7105 445.634 63.4704 445.548 63.2523C445.462 63.0342 445.317 62.8479 445.132 62.7165Z" fill="white" stroke="#263238" stroke-linecap="round" stroke-linejoin="round"/>
<path d="M435.675 62.8367H432.125V70.4237H435.675V62.8367Z" fill="white" stroke="#263238" stroke-linecap="round" stroke-linejoin="round"/>
<path d="M446.719 125.353C451.059 120.758 451.059 113.309 446.719 108.715C442.38 104.12 435.344 104.12 431.004 108.715C426.664 113.309 426.664 120.758 431.004 125.353C435.344 129.947 442.38 129.947 446.719 125.353Z" fill="white" stroke="#263238" stroke-linecap="round" stroke-linejoin="round"/>
<path d="M432.591 119.776H436.843C436.572 120.814 436.386 121.874 436.288 122.945C436.129 124.698 436.684 124.95 437.943 124.95C439.202 124.95 437.943 123.75 438.578 122.357C439.242 121.269 440.129 120.354 441.175 119.68V111.853H434.87C432.75 112.177 434.088 113.762 434.088 113.762C432.512 114.098 433.453 115.767 433.453 115.767C431.877 116.019 432.977 117.603 432.977 117.603C432.759 117.654 432.56 117.771 432.405 117.94C432.25 118.109 432.145 118.323 432.104 118.555C432.063 118.786 432.087 119.026 432.174 119.243C432.26 119.46 432.405 119.646 432.591 119.776Z" fill="white" stroke="#263238" stroke-linecap="round" stroke-linejoin="round"/>
<path d="M442.036 119.692H445.585V112.105H442.036V119.692Z" fill="white" stroke="#263238" stroke-linecap="round" stroke-linejoin="round"/>
<path d="M156.165 73.8924L38.5099 98.4662C35.3916 99.1144 32.8403 97.3857 32.8403 94.6006V72.3197C32.8403 69.5226 35.3803 66.7735 38.5099 66.1613L156.165 43.3522C158.966 42.8119 161.222 44.5526 161.222 47.1337V68.1901C161.222 70.6991 158.966 73.3041 156.165 73.8924Z" fill="white" stroke="#263238" stroke-linecap="round" stroke-linejoin="round"/>
<path d="M61.8911 77.2909C61.8911 71.7087 56.8565 68.1673 50.62 69.4038C44.3834 70.6402 39.2241 76.2105 39.2241 81.8527C39.2241 87.495 44.3381 91.0244 50.62 89.7279C56.9018 88.4313 61.8911 82.8731 61.8911 77.2909Z" fill="white" stroke="#263238" stroke-linecap="round" stroke-linejoin="round"/>
<path d="M73.049 70.0994L121.887 60.3755" stroke="#263238" stroke-linecap="round" stroke-linejoin="round"/>
<path d="M73.049 74.565L121.887 64.7451" stroke="#263238" stroke-linecap="round" stroke-linejoin="round"/>
<path d="M73.049 80.1592L145.778 65.3333" stroke="#263238" stroke-linecap="round" stroke-linejoin="round"/>
<path d="M156.165 164.577L38.5099 194.241C35.3916 195.033 32.8403 193.413 32.8403 190.64V168.287C32.8403 165.49 35.3803 162.62 38.5099 161.888L156.165 133.941C158.966 133.281 161.222 134.877 161.222 137.542V158.587C161.222 161.156 158.966 163.881 156.165 164.577Z" fill="white" stroke="#263238" stroke-linecap="round" stroke-linejoin="round"/>
<path d="M61.8911 172.056C61.8911 166.474 56.8565 163.161 50.62 164.661C44.3834 166.162 39.2241 171.96 39.2241 177.602C39.2241 183.245 44.3381 186.546 50.62 184.985C56.9018 183.425 61.8911 177.65 61.8911 172.056Z" fill="white" stroke="#263238" stroke-linecap="round" stroke-linejoin="round"/>
<path d="M73.049 164.385L121.887 152.549" stroke="#263238" stroke-linecap="round" stroke-linejoin="round"/>
<path d="M73.049 168.851L121.887 156.918" stroke="#263238" stroke-linecap="round" stroke-linejoin="round"/>
<path d="M73.049 174.445L145.778 156.473" stroke="#263238" stroke-linecap="round" stroke-linejoin="round"/>
<path d="M167.277 47.8305C167.277 42.0322 162.311 38.2987 156.142 39.4871C149.974 40.6756 144.894 46.3899 144.894 52.2482C144.894 58.1066 149.951 61.8521 156.142 60.5676C162.333 59.2831 167.277 53.6168 167.277 47.8305Z" fill="#FFDE34" stroke="#263238" stroke-linecap="round" stroke-linejoin="round"/>
<path d="M163.07 50.1831L162.186 51.2035L156.255 57.9742L149.452 52.8962C147.808 51.6957 147.808 49.1507 149.452 47.2779C150.251 46.3774 151.299 45.768 152.445 45.5372C152.952 45.422 153.475 45.4136 153.985 45.5125C154.495 45.6114 154.981 45.8156 155.416 46.1134L156.312 46.7857L157.208 45.7653C157.995 44.8692 159.032 44.2633 160.167 44.0366C160.67 43.918 161.19 43.9079 161.697 44.0069C162.203 44.1059 162.686 44.312 163.116 44.6128C164.703 45.8253 164.703 48.3103 163.07 50.1831Z" fill="white" stroke="#263238" stroke-linecap="round" stroke-linejoin="round"/>
<path d="M184.705 111.445L70.3158 137.735C67.2882 138.431 64.8163 136.775 64.8163 134.026V111.997C64.8163 109.248 67.2882 106.487 70.3158 105.838L184.705 81.2165C187.415 80.6283 189.615 82.2609 189.615 84.8179V105.574C189.505 106.983 188.968 108.316 188.083 109.374C187.198 110.433 186.013 111.159 184.705 111.445Z" fill="white" stroke="#263238" stroke-linecap="round" stroke-linejoin="round"/>
<path d="M93.0288 116.449C93.0288 110.951 88.1416 107.554 82.0752 108.874C76.0087 110.195 71.0082 115.789 71.0082 121.347C71.0082 126.906 75.9861 130.291 82.0752 128.91C88.1643 127.53 93.0288 121.96 93.0288 116.449Z" fill="white" stroke="#263238" stroke-linecap="round" stroke-linejoin="round"/>
<path d="M103.88 109.163L151.357 98.7068" stroke="#263238" stroke-linecap="round" stroke-linejoin="round"/>
<path d="M103.88 113.569L151.357 103.016" stroke="#263238" stroke-linecap="round" stroke-linejoin="round"/>
<path d="M103.88 119.079L174.591 103.185" stroke="#263238" stroke-linecap="round" stroke-linejoin="round"/>
<path d="M194.185 85.4535C194.185 79.7392 189.343 76.1378 183.345 77.4223C177.346 78.7068 172.38 84.4451 172.38 90.2194C172.38 95.9937 177.301 99.5832 183.345 98.2386C189.388 96.8941 194.185 91.1798 194.185 85.4535Z" fill="#FFDE34" stroke="#263238" stroke-linecap="round" stroke-linejoin="round"/>
<path d="M190.443 86.2695C190.443 82.524 187.268 80.171 183.345 81.0234C179.422 81.8757 176.19 85.6212 176.19 89.4267C176.19 93.2323 179.399 95.5372 183.345 94.6608C187.291 93.7845 190.443 90.015 190.443 86.2695Z" fill="white" stroke="#263238" stroke-linecap="round" stroke-linejoin="round"/>
<path d="M179.161 89.9905C179.648 91.5991 180.884 92.8236 183.345 92.2834C184.356 92.1315 185.299 91.6555 186.047 90.9194C186.795 90.1833 187.312 89.2223 187.529 88.1658L179.161 89.9905Z" stroke="#263238" stroke-linecap="round" stroke-linejoin="round"/>
<path d="M181.644 86.9417C181.644 87.71 181.406 88.3942 181.111 88.4663C180.816 88.5383 180.578 87.9501 180.578 87.1698C180.578 86.3894 180.816 85.7052 181.111 85.6452C181.406 85.5851 181.644 86.1614 181.644 86.9417Z" fill="#263238"/>
<path d="M185.669 86.0649C185.669 86.8332 185.42 87.5175 185.125 87.5896C184.83 87.6616 184.592 87.0733 184.592 86.293C184.592 85.5127 184.83 84.8405 185.125 84.7684C185.42 84.6964 185.669 85.2846 185.669 86.0649Z" fill="#263238"/>
<path d="M168.252 134.373C168.252 128.587 163.285 125.058 157.128 126.498C150.971 127.939 145.891 133.869 145.891 139.703C145.891 145.538 150.937 149.067 157.128 147.555C163.319 146.042 168.252 140.172 168.252 134.373Z" fill="#FFDE34" stroke="#263238" stroke-linecap="round" stroke-linejoin="round"/>
<path d="M164.42 135.298C164.42 131.504 161.166 129.199 157.129 130.147C153.092 131.096 149.793 134.949 149.793 138.791C149.793 142.632 153.092 144.913 157.129 143.929C161.166 142.945 164.42 139.091 164.42 135.298Z" fill="white" stroke="#263238" stroke-linecap="round" stroke-linejoin="round"/>
<path d="M152.91 142.572C153.349 141.723 153.951 140.981 154.677 140.394C155.404 139.806 156.239 139.387 157.128 139.163C157.853 138.925 158.627 138.911 159.358 139.124C160.09 139.337 160.748 139.767 161.256 140.364" stroke="#263238" stroke-linecap="round" stroke-linejoin="round"/>
<path d="M155.393 136.175C155.393 136.967 155.144 137.663 154.838 137.735C154.532 137.807 154.294 137.231 154.294 136.439C154.294 135.646 154.543 134.962 154.838 134.89C155.133 134.818 155.393 135.394 155.393 136.175Z" fill="#263238"/>
<path d="M159.51 135.202C159.51 135.982 159.272 136.678 158.966 136.75C158.66 136.822 158.422 136.246 158.422 135.454C158.422 134.662 158.66 133.977 158.966 133.905C159.272 133.833 159.51 134.409 159.51 135.202Z" fill="#263238"/>
<path d="M317.657 176.113C317.657 176.113 314.777 172.728 311.251 173.064C307.724 173.4 307.407 173.064 309.334 182.548C311.262 192.032 314.777 200.555 316.693 200.555C317.307 200.517 317.907 200.347 318.456 200.056C319.006 199.765 319.494 199.359 319.891 198.862L322.771 205.297H391.94C391.94 205.297 402.145 186.329 400.898 177.182C399.651 168.034 392.575 174.132 392.575 174.132L317.657 176.113Z" fill="white" stroke="#263238" stroke-linecap="round" stroke-linejoin="round"/>
<path d="M329.813 194.769C329.813 194.769 322.136 189.967 318.609 181.9C316.542 177.35 315.45 172.374 315.412 167.326C315.412 167.326 307.406 156.521 313.813 139.547C320.22 122.572 324.37 118.538 326.932 119.211L329.495 119.895C329.495 119.895 337.818 100.579 350.62 100.579C363.422 100.579 380.703 110.399 389.343 120.567C397.983 130.735 402.462 146.978 400.546 150.387C399.45 152.375 397.763 153.924 395.75 154.793C395.75 154.793 395.103 172.8 389.661 180.543C385.918 185.786 381.857 190.767 377.505 195.453L331.411 197.17L329.813 194.769Z" fill="#263238" stroke="#263238" stroke-linecap="round" stroke-linejoin="round"/>
<path d="M222.68 234.769C222.68 234.769 224.948 226.366 223.814 220.363C222.68 214.361 217.577 204.157 220.979 196.354C224.381 188.551 228.157 189.583 226.082 194.553C224.732 197.794 225.515 202.956 225.515 202.956C225.515 202.956 230.618 195.753 232.885 195.153C234.953 194.829 237.054 194.829 239.122 195.153C239.122 195.153 240.823 192.152 242.524 192.152H248.193C248.193 192.152 254.43 184.349 257.831 186.15C261.233 187.95 268.037 195.753 266.336 199.355C264.635 202.956 260.099 197.554 260.099 197.554L257.831 194.553C257.831 194.553 254.997 201.156 254.43 205.958C254.052 208.342 254.052 210.776 254.43 213.16L256.698 214.961L266.903 211.36C270.304 210.159 274.273 214.361 271.438 216.162C268.604 217.962 261.8 222.164 260.666 223.965C259.532 225.765 253.863 227.566 253.863 227.566L249.894 228.767L241.957 244.373C241.957 244.373 228.35 229.967 222.68 234.769Z" fill="white" stroke="#263238" stroke-linecap="round" stroke-linejoin="round"/>
<path d="M248.193 192.152C248.193 192.152 245.358 193.953 244.224 199.355" stroke="#263238" stroke-linecap="round" stroke-linejoin="round"/>
<path d="M239.122 195.153C237.356 196.696 235.826 198.518 234.586 200.555" stroke="#263238" stroke-linecap="round" stroke-linejoin="round"/>
<path d="M241.957 236.57C241.957 236.57 236.287 228.767 229.484 228.166C222.68 227.566 219.278 229.367 218.144 231.768C217.011 234.169 213.609 236.57 213.609 236.57C213.609 236.57 196.033 249.175 187.529 258.178C179.024 267.182 169.386 274.985 169.953 283.388C170.52 291.792 187.529 294.193 193.198 291.192C198.868 288.19 208.506 277.386 212.475 270.183C216.444 262.98 241.957 236.57 241.957 236.57Z" fill="#FFDE34" stroke="#263238" stroke-linecap="round" stroke-linejoin="round"/>
<path d="M406.942 211.961C406.942 211.961 386.531 195.754 371.223 189.752C355.916 183.749 336.639 187.351 325.867 193.954C315.095 200.556 299.787 210.76 299.787 210.76L406.942 211.961Z" fill="#FFDE34" stroke="#263238" stroke-linecap="round" stroke-linejoin="round"/>
<path d="M495.386 255.178C495.386 255.178 493.118 246.775 494.252 240.772C495.386 234.77 500.489 224.566 497.087 216.763C493.685 208.96 489.603 210.148 491.985 214.962C493.2 217.578 493.404 220.593 492.551 223.365C492.551 223.365 487.449 216.162 485.181 215.562C483.113 215.238 481.012 215.238 478.944 215.562C478.944 215.562 477.244 212.561 475.543 212.561H469.873C469.873 212.561 463.637 204.758 460.235 206.559C456.833 208.359 450.03 216.162 451.731 219.764C453.431 223.365 457.967 217.963 457.967 217.963L460.235 214.962C460.235 214.962 463.07 221.565 463.637 226.367C464.014 228.751 464.014 231.185 463.637 233.569L461.369 235.37L451.164 231.769C447.762 230.568 443.793 234.77 446.628 236.571C449.463 238.371 456.266 242.573 457.4 244.374C458.534 246.174 464.204 247.975 464.204 247.975L468.172 249.176L476.11 264.782C476.11 264.782 489.717 250.376 495.386 255.178Z" fill="white" stroke="#263238" stroke-linecap="round" stroke-linejoin="round"/>
<path d="M469.874 212.561C469.874 212.561 472.708 214.362 473.842 219.764L469.874 212.561Z" fill="white"/>
<path d="M469.874 212.561C469.874 212.561 472.708 214.362 473.842 219.764" stroke="#263238" stroke-linecap="round" stroke-linejoin="round"/>
<path d="M478.945 215.562C480.711 217.105 482.241 218.927 483.48 220.964L478.945 215.562Z" fill="white"/>
<path d="M478.945 215.562C480.711 217.105 482.241 218.927 483.48 220.964" stroke="#263238" stroke-linecap="round" stroke-linejoin="round"/>
<path d="M480.078 257.579C480.078 257.579 481.212 254.577 486.314 252.176C491.417 249.776 497.653 252.176 497.653 252.176L501.055 259.98C501.055 259.98 497.653 262.981 510.693 271.384C523.733 279.787 528.836 295.994 528.836 303.197C528.836 310.4 510.126 293.593 498.787 283.989C487.448 274.385 480.078 257.579 480.078 257.579Z" fill="#FFDE34" stroke="#263238" stroke-linecap="round" stroke-linejoin="round"/>
<path d="M410.343 212.561C410.343 212.561 376.892 202.957 355.915 201.756C334.938 200.556 306.023 208.359 302.054 208.959C298.085 209.559 264.635 214.361 261.233 216.162C257.831 217.963 198.868 265.982 198.868 265.982C198.868 265.982 189.797 267.783 178.457 271.384C167.118 274.985 164.85 284.589 164.85 284.589C164.85 284.589 168.252 312.2 176.19 315.802C184.127 319.403 190.93 315.802 197.734 312.8C204.537 309.799 256.131 291.192 256.131 291.192L263.501 336.21H430.753L440.959 288.791C440.959 288.791 499.922 336.81 508.427 337.41C516.931 338.011 528.27 332.008 532.806 323.005C537.341 314.001 526.569 294.193 522.6 288.191C518.632 282.188 507.293 275.586 498.788 269.583C490.284 263.581 456.266 223.365 451.731 219.763C447.195 216.162 410.343 212.561 410.343 212.561Z" fill="#FFDE34" stroke="#263238" stroke-linecap="round" stroke-linejoin="round"/>
<path d="M373.184 235.477C375.248 236.678 376.926 237.626 378.026 238.37" stroke="#263238" stroke-linecap="round" stroke-linejoin="round"/>
<path d="M332.67 214.962C332.67 214.962 355.983 226.186 369.715 233.569" stroke="#263238" stroke-linecap="round" stroke-linejoin="round"/>
<path d="M361.585 226.365C361.585 226.365 377.46 233.568 384.831 240.171" stroke="#263238" stroke-linecap="round" stroke-linejoin="round"/>
<path d="M448.544 261.096L440.958 288.791L456.833 258.779" stroke="#263238" stroke-linecap="round" stroke-linejoin="round"/>
<path d="M452.298 247.374L450.416 254.253" stroke="#263238" stroke-linecap="round" stroke-linejoin="round"/>
<path d="M249.486 261.299L256.131 291.191L240.256 265.381" stroke="#263238" stroke-linecap="round" stroke-linejoin="round"/>
<path d="M247.059 250.375L248.329 256.102" stroke="#263238" stroke-linecap="round" stroke-linejoin="round"/>
<path d="M180.442 276.018C185.826 271.301 192.112 267.877 198.868 265.982" stroke="#263238" stroke-linecap="round" stroke-linejoin="round"/>
<path d="M173.355 283.388C174.438 281.978 175.604 280.643 176.847 279.39" stroke="#263238" stroke-linecap="round" stroke-linejoin="round"/>
<path d="M263.773 398.035L250.246 326.115C250.064 325.154 250.087 324.163 250.311 323.213C250.535 322.263 250.956 321.378 251.543 320.621C252.13 319.864 252.868 319.255 253.705 318.836C254.541 318.418 255.455 318.202 256.38 318.203H441.276C442.201 318.202 443.115 318.418 443.951 318.836C444.788 319.255 445.526 319.864 446.113 320.621C446.7 321.378 447.121 322.263 447.345 323.213C447.57 324.163 447.592 325.154 447.411 326.115L433.883 398.035" fill="white"/>
<path d="M263.773 398.035L250.246 326.115C250.064 325.154 250.087 324.163 250.311 323.213C250.535 322.263 250.956 321.378 251.543 320.621C252.13 319.864 252.868 319.255 253.705 318.836C254.541 318.418 255.455 318.202 256.38 318.203H441.276C442.201 318.202 443.115 318.418 443.951 318.836C444.788 319.255 445.526 319.864 446.113 320.621C446.7 321.378 447.121 322.263 447.345 323.213C447.57 324.163 447.592 325.154 447.411 326.115L433.883 398.035" stroke="#263238" stroke-linecap="round" stroke-linejoin="round"/>
<path d="M270.996 398.035L257.265 318.203H440.392L426.66 398.035" fill="#263238"/>
<path d="M270.996 398.035L257.265 318.203H440.392L426.66 398.035" stroke="#263238" stroke-linecap="round" stroke-linejoin="round"/>
</svg>
