<svg width="672" height="500" viewBox="0 0 672 500" fill="none" xmlns="http://www.w3.org/2000/svg">
<path d="M671.033 439.392H0V439.728H671.033V439.392Z" fill="#EBEBEB"/>
<path d="M485.828 450.049H441.379V450.384H485.828V450.049Z" fill="#EBEBEB"/>
<path d="M591.743 450.223H536.531V450.558H591.743V450.223Z" fill="#EBEBEB"/>
<path d="M504.549 458.987H478.795V459.322H504.549V458.987Z" fill="#EBEBEB"/>
<path d="M302.864 456.45H233.52V456.785H302.864V456.45Z" fill="#EBEBEB"/>
<path d="M221.575 456.45H175.421V456.785H221.575V456.45Z" fill="#EBEBEB"/>
<path d="M147.802 450.787H84.9395V451.122H147.802V450.787Z" fill="#EBEBEB"/>
<path d="M318.07 379.536H58.9301C56.9 379.533 54.9543 378.724 53.52 377.287C52.0858 375.85 51.2803 373.903 51.2803 371.873V7.59609C51.2979 5.57766 52.1113 3.64771 53.5436 2.22544C54.9759 0.80317 56.9115 0.00345768 58.9301 0H318.07C320.102 0 322.051 0.807371 323.488 2.2445C324.925 3.68163 325.733 5.63079 325.733 7.6632V371.873C325.733 373.905 324.925 375.855 323.488 377.292C322.051 378.729 320.102 379.536 318.07 379.536V379.536ZM58.9301 0.268414C56.989 0.271969 55.1286 1.04556 53.7573 2.41938C52.386 3.7932 51.6158 5.65499 51.6158 7.59609V371.873C51.6158 373.814 52.386 375.676 53.7573 377.05C55.1286 378.424 56.989 379.197 58.9301 379.201H318.07C320.012 379.197 321.874 378.424 323.247 377.051C324.621 375.677 325.394 373.815 325.397 371.873V7.59609C325.394 5.65376 324.621 3.792 323.247 2.41856C321.874 1.04512 320.012 0.271962 318.07 0.268414H58.9301Z" fill="#EBEBEB"/>
<path d="M608.372 379.536H349.219C347.188 379.533 345.24 378.724 343.804 377.288C342.368 375.852 341.559 373.904 341.556 371.873V7.59609C341.577 5.57644 342.393 3.6465 343.828 2.2246C345.262 0.802701 347.199 0.00341997 349.219 0H608.372C610.388 0.00698478 612.32 0.808258 613.75 2.23015C615.179 3.65204 615.991 5.57998 616.008 7.59609V371.873C616.008 373.901 615.204 375.846 613.773 377.282C612.342 378.719 610.4 379.529 608.372 379.536V379.536ZM349.219 0.268414C347.277 0.271962 345.415 1.04512 344.041 2.41856C342.668 3.792 341.895 5.65376 341.891 7.59609V371.873C341.895 373.815 342.668 375.677 344.041 377.051C345.415 378.424 347.277 379.197 349.219 379.201H608.372C610.314 379.197 612.176 378.424 613.549 377.051C614.923 375.677 615.696 373.815 615.699 371.873V7.59609C615.696 5.65376 614.923 3.792 613.549 2.41856C612.176 1.04512 610.314 0.271962 608.372 0.268414H349.219Z" fill="#EBEBEB"/>
<path d="M286.598 40.8523H104.48V313.426H286.598V40.8523Z" fill="#E6E6E6"/>
<path d="M290.638 40.8523H108.52V313.426H290.638V40.8523Z" fill="#F5F5F5"/>
<path d="M283.377 305.266V49.0122L115.793 49.0122L115.793 305.266H283.377Z" fill="white"/>
<path d="M283.377 305.266V49.0122H280.317V305.266H283.377Z" fill="#E6E6E6"/>
<path d="M287.632 128.906H111.526V139.857H287.632V128.906Z" fill="#F5F5F5"/>
<path d="M298.557 27.3379H96.6293C96.3314 27.3414 96.0467 27.4613 95.836 27.6719C95.6253 27.8826 95.5054 28.1673 95.502 28.4652V28.4652C95.5191 28.7524 95.6454 29.0222 95.855 29.2193C96.0645 29.4164 96.3416 29.526 96.6293 29.5255H298.557C298.853 29.5255 299.138 29.4085 299.349 29.2C299.56 28.9915 299.68 28.7082 299.684 28.4115C299.667 28.1231 299.541 27.8518 299.332 27.6525C299.123 27.4532 298.845 27.3408 298.557 27.3379Z" fill="#E6E6E6"/>
<path d="M305.266 28.4653C305.255 29.5704 304.918 30.6476 304.296 31.5611C303.674 32.4746 302.795 33.1836 301.771 33.5985C300.747 34.0135 299.623 34.1159 298.54 33.8928C297.458 33.6698 296.466 33.1313 295.689 32.3452C294.912 31.5591 294.385 30.5606 294.175 29.4756C293.965 28.3906 294.081 27.2677 294.508 26.2484C294.935 25.2292 295.655 24.3592 296.576 23.7482C297.497 23.1373 298.578 22.8126 299.683 22.8152C300.422 22.8151 301.153 22.9617 301.835 23.2465C302.517 23.5313 303.135 23.9485 303.655 24.4741C304.174 24.9996 304.584 25.623 304.86 26.3082C305.137 26.9933 305.275 27.7265 305.266 28.4653V28.4653Z" fill="#E6E6E6"/>
<path d="M106.023 34.7328C105.623 34.7292 105.24 34.5679 104.959 34.2839C104.677 33.9999 104.52 33.6161 104.52 33.2162V29.9684C104.52 29.5698 104.678 29.1875 104.96 28.9056C105.242 28.6237 105.624 28.4653 106.023 28.4653C106.423 28.4653 106.806 28.6233 107.09 28.9048C107.374 29.1863 107.536 29.5686 107.539 29.9684V33.2162C107.536 33.6174 107.375 34.0011 107.091 34.2847C106.807 34.5684 106.424 34.7293 106.023 34.7328V34.7328Z" fill="#E6E6E6"/>
<path d="M281.686 34.7328C281.286 34.7292 280.904 34.5679 280.623 34.2839C280.341 33.9999 280.183 33.6161 280.183 33.2162V29.9684C280.183 29.5698 280.341 29.1875 280.623 28.9056C280.905 28.6237 281.288 28.4653 281.686 28.4653C282.081 28.4723 282.458 28.6333 282.737 28.9141C283.015 29.1949 283.172 29.5732 283.176 29.9684V33.2162C283.173 33.6128 283.015 33.9926 282.737 34.2755C282.46 34.5584 282.083 34.7224 281.686 34.7328V34.7328Z" fill="#E6E6E6"/>
<path opacity="0.5" d="M298.207 28.4653H111.526V285.417H298.207V28.4653Z" fill="#E0E0E0"/>
<path d="M129.563 28.4653C129.552 29.5698 129.215 30.6465 128.594 31.5597C127.972 32.473 127.094 33.1819 126.071 33.5973C125.047 34.0126 123.924 34.1158 122.842 33.8939C121.76 33.6719 120.768 33.1347 119.99 32.3499C119.213 31.5652 118.685 30.5679 118.474 29.4838C118.262 28.3997 118.376 27.2772 118.801 26.2577C119.226 25.2382 119.944 24.3674 120.863 23.7548C121.782 23.1421 122.862 22.8152 123.966 22.8152C124.706 22.8152 125.438 22.9617 126.12 23.2463C126.803 23.5309 127.422 23.9479 127.943 24.4733C128.463 24.9986 128.874 25.6219 129.152 26.3071C129.43 26.9923 129.57 27.7258 129.563 28.4653V28.4653Z" fill="#E6E6E6"/>
<path d="M132.019 354.467H96.0786V434.172H132.019V354.467Z" fill="#F0F0F0"/>
<path d="M280.25 434.172H102.977V439.218H280.25V434.172Z" fill="#F0F0F0"/>
<path d="M132.033 434.185H287.162V354.48H132.033V434.185Z" fill="#F5F5F5"/>
<path d="M146.164 390.434H273.03V364.29H146.164V390.434Z" fill="#F0F0F0"/>
<path d="M146.164 424.361H273.03V398.218H146.164V424.361Z" fill="#F0F0F0"/>
<path d="M225.749 375.564H193.419C192.544 375.564 191.835 376.273 191.835 377.148V377.564C191.835 378.438 192.544 379.147 193.419 379.147H225.749C226.624 379.147 227.333 378.438 227.333 377.564V377.148C227.333 376.273 226.624 375.564 225.749 375.564Z" fill="#F5F5F5"/>
<path d="M225.749 409.504H193.419C192.544 409.504 191.835 410.213 191.835 411.088V411.504C191.835 412.379 192.544 413.088 193.419 413.088H225.749C226.624 413.088 227.333 412.379 227.333 411.504V411.088C227.333 410.213 226.624 409.504 225.749 409.504Z" fill="#F5F5F5"/>
<path d="M217.535 341.059C217.535 341.059 217.965 354.48 234.526 354.48C251.087 354.48 251.53 341.059 251.53 341.059H217.535Z" fill="#F0F0F0"/>
<path d="M178.777 341.059C178.777 341.059 179.22 354.48 195.781 354.48C212.342 354.48 212.771 341.059 212.771 341.059H178.777Z" fill="#F0F0F0"/>
<path d="M217.535 332.161C217.535 332.161 217.965 345.582 234.526 345.582C251.087 345.582 251.53 332.161 251.53 332.161H217.535Z" fill="#F0F0F0"/>
<path d="M178.777 332.161C178.777 332.161 179.22 345.582 195.781 345.582C212.342 345.582 212.771 332.161 212.771 332.161H178.777Z" fill="#F0F0F0"/>
<path d="M140.031 341.059C140.031 341.059 140.461 354.48 157.035 354.48C173.61 354.48 174.026 341.059 174.026 341.059H140.031Z" fill="#F0F0F0"/>
<path d="M140.031 332.161C140.031 332.161 140.461 345.582 157.035 345.582C173.61 345.582 174.026 332.161 174.026 332.161H140.031Z" fill="#F0F0F0"/>
<path d="M441.486 74.5652H383.213V439.392H441.486V74.5652Z" fill="#E6E6E6"/>
<path d="M441.472 439.379H543.979V74.5522H441.472L441.472 439.379Z" fill="#F5F5F5"/>
<path d="M538.611 439.393V79.9336H446.841V439.393H538.611Z" fill="#E6E6E6"/>
<path d="M470.019 439.393V79.9336H446.855V439.393H470.019Z" fill="#E0E0E0"/>
<path d="M541.523 375.322V369.954H446.854V375.322H541.523Z" fill="#F5F5F5"/>
<path d="M541.523 300.005V294.637H446.854V300.005H541.523Z" fill="#F5F5F5"/>
<path d="M541.523 224.689V219.32H446.854V224.689H541.523Z" fill="#F5F5F5"/>
<path d="M541.523 149.358V143.99H446.854V149.358H541.523Z" fill="#F5F5F5"/>
<path d="M452.639 347.756C452.639 347.756 452.934 370.169 464.301 370.169C475.669 370.169 475.964 347.756 475.964 347.756H452.639Z" fill="#F0F0F0"/>
<path d="M477.91 347.756C477.91 347.756 478.219 370.169 489.586 370.169C500.953 370.169 501.249 347.756 501.249 347.756H477.91Z" fill="#F0F0F0"/>
<path d="M503.194 347.756C503.194 347.756 503.489 370.169 514.856 370.169C526.224 370.169 526.519 347.756 526.519 347.756H503.194Z" fill="#F0F0F0"/>
<path d="M458.437 194.734C458.437 194.734 459.228 219.321 489.586 219.321C519.943 219.321 520.722 194.734 520.722 194.734H458.437Z" fill="#F0F0F0"/>
<path d="M458.437 178.495C458.437 178.495 459.228 203.082 489.586 203.082C519.943 203.082 520.722 178.495 520.722 178.495H458.437Z" fill="#F0F0F0"/>
<path d="M522.48 235.13H462.986V294.624H522.48V235.13Z" fill="#FAFAFA"/>
<path d="M505.637 243.639H479.843V253.208H505.637V243.639Z" fill="#F0F0F0"/>
<path d="M446.854 294.637H462.986V235.143H446.854V294.637Z" fill="#EBEBEB"/>
<path d="M522.48 385.468H462.986V439.245H522.48V385.468Z" fill="#FAFAFA"/>
<path d="M505.637 393.037H479.843V402.606H505.637V393.037Z" fill="#F0F0F0"/>
<path d="M446.854 439.258H462.986V385.482H446.854V439.258Z" fill="#EBEBEB"/>
<path d="M471.521 143.99H513.125V92.8172H471.521V143.99Z" fill="#FAFAFA"/>
<path d="M517.755 92.8306H509.368C508.226 92.8306 507.301 93.7559 507.301 94.8973V141.937C507.301 143.078 508.226 144.004 509.368 144.004H517.755C518.897 144.004 519.822 143.078 519.822 141.937V94.8973C519.822 93.7559 518.897 92.8306 517.755 92.8306Z" fill="#F0F0F0"/>
<path d="M457.497 143.99H499.101V92.8172H457.497V143.99Z" fill="#FAFAFA"/>
<path d="M503.745 92.8306H495.357C494.215 92.8306 493.29 93.7559 493.29 94.8973V141.937C493.29 143.078 494.215 144.004 495.357 144.004H503.745C504.886 144.004 505.812 143.078 505.812 141.937V94.8973C505.812 93.7559 504.886 92.8306 503.745 92.8306Z" fill="#F0F0F0"/>
<path d="M446.854 92.8306H482.755L479.896 143.99H446.854V92.8306Z" fill="#FAFAFA"/>
<path d="M487.398 92.8306H479.01C478.452 92.8361 477.917 93.052 477.511 93.4352C477.106 93.8184 476.86 94.3406 476.823 94.8973L474.138 141.87C474.12 142.136 474.157 142.403 474.246 142.654C474.336 142.905 474.477 143.135 474.659 143.329C474.842 143.523 475.063 143.677 475.308 143.782C475.554 143.886 475.818 143.939 476.084 143.936H484.486C485.044 143.931 485.579 143.715 485.985 143.332C486.39 142.949 486.636 142.426 486.673 141.87L489.29 94.8973C489.309 94.6359 489.273 94.3734 489.187 94.1259C489.101 93.8784 488.965 93.6511 488.788 93.4578C488.611 93.2644 488.396 93.1091 488.157 93.0013C487.918 92.8935 487.66 92.8354 487.398 92.8306V92.8306Z" fill="#F0F0F0"/>
<path d="M335.516 500C479.228 500 595.73 493.198 595.73 484.808C595.73 476.417 479.228 469.615 335.516 469.615C191.805 469.615 75.3032 476.417 75.3032 484.808C75.3032 493.198 191.805 500 335.516 500Z" fill="#F5F5F5"/>
<path d="M416.577 460.678L406.834 457.94L410.592 434.655L420.335 437.407L416.577 460.678Z" fill="#FFC3BD"/>
<path d="M498.524 474.474H488.405L485.896 451.055H496.001L498.524 474.474Z" fill="#FFC3BD"/>
<path d="M487.573 473.306H499.906C500.108 473.304 500.304 473.371 500.463 473.495C500.621 473.62 500.733 473.795 500.779 473.991L502.765 482.983C502.814 483.202 502.812 483.429 502.76 483.647C502.709 483.865 502.608 484.069 502.465 484.242C502.323 484.415 502.143 484.554 501.939 484.647C501.735 484.741 501.513 484.787 501.289 484.781C497.262 484.714 494.431 484.486 489.425 484.486C486.351 484.486 477.078 484.808 472.837 484.808C468.596 484.808 468.032 480.607 469.777 480.231C477.574 478.527 483.439 476.205 485.882 473.924C486.347 473.511 486.951 473.291 487.573 473.306Z" fill="#263238"/>
<path d="M407.223 456.826L417.852 459.819C418.046 459.873 418.215 459.992 418.332 460.155C418.449 460.319 418.507 460.517 418.496 460.718L417.986 469.924C417.978 470.148 417.918 470.367 417.811 470.565C417.704 470.762 417.554 470.932 417.371 471.062C417.188 471.191 416.978 471.277 416.756 471.313C416.535 471.348 416.308 471.332 416.094 471.266C412.283 470.126 406.794 468.341 401.976 466.985C396.339 465.388 396.366 465.24 389.749 463.375C385.723 462.261 385.723 457.899 387.562 458.007C395.614 458.49 396.956 459.148 404.66 456.933C405.489 456.67 406.374 456.633 407.223 456.826V456.826Z" fill="#263238"/>
<path d="M475.347 164.417C471.938 170.08 468.368 175.475 464.61 180.83C460.852 186.185 456.907 191.419 452.652 196.533L451.86 197.485L451.538 197.861L451.122 198.331C450.841 198.64 450.505 198.948 450.196 199.23C448.873 200.386 447.324 201.255 445.647 201.78C442.974 202.543 440.145 202.566 437.46 201.847C433.678 200.808 430.108 199.114 426.911 196.841C421.287 192.919 416.206 188.271 411.8 183.018L416.967 177.462C419.49 179.139 422.161 180.897 424.804 182.454C427.372 184.026 430.019 185.464 432.736 186.762C435.011 187.921 437.451 188.723 439.97 189.138C440.909 189.245 441.513 189.03 441.312 188.963C441.169 188.967 441.03 189.008 440.909 189.084C440.909 189.084 440.909 189.084 440.829 189.084L440.896 188.99L441.567 188.024C445.11 182.87 448.586 177.569 452.035 172.241L462.382 156.284L475.347 164.417Z" fill="#FFC3BD"/>
<path d="M468.502 152.244C462.637 154.499 459.819 158.243 450.156 171.033L465.858 188.949C468.18 186.373 475.038 177.743 478.259 174.281C483.734 168.429 479.748 147.936 468.502 152.244Z" fill="#263238"/>
<path d="M418.362 179.971L414.444 169.933L406.163 178.24C406.815 179.617 407.75 180.841 408.906 181.833C410.062 182.825 411.414 183.562 412.873 183.997L418.362 179.971Z" fill="#FFC3BD"/>
<path d="M409.881 163.558L403.452 171.167L406.163 178.24L414.444 169.932L409.881 163.558Z" fill="#FFC3BD"/>
<path opacity="0.2" d="M410.605 434.668L408.659 446.667L418.403 449.404L420.335 437.406L410.605 434.668Z" fill="black"/>
<path opacity="0.2" d="M496.015 451.055H485.896L487.197 463.134H497.317L496.015 451.055Z" fill="black"/>
<path d="M525.794 161.505C521.623 172.023 518.245 182.839 515.689 193.862C513.85 201.539 512.441 208.906 511.327 215.603C508.71 231.319 507.703 243.398 506.777 247.424L453.618 237.654C462.516 158.633 470.018 151.761 470.018 151.761C474.35 151.442 478.698 151.393 483.036 151.614C483.962 151.614 484.888 151.734 485.828 151.815C493.443 152.771 500.998 154.16 508.455 155.975C509.864 156.311 511.287 156.687 512.683 157.076C519.675 159.049 525.794 161.505 525.794 161.505Z" fill="#263238"/>
<path opacity="0.2" d="M510.63 174.469C509.61 182.684 511.009 191.019 514.656 198.451C514.978 196.935 515.327 195.418 515.703 193.875C517.045 188.104 518.682 182.145 520.588 176.16L510.63 174.469Z" fill="black"/>
<path d="M510.844 130.087C508.066 137.106 504.201 150.218 508.388 155.975C505.718 157.899 502.666 159.228 499.439 159.871C496.211 160.515 492.883 160.459 489.68 159.706C483.439 158.364 483.936 153.989 485.774 151.815C494.243 151.372 495.169 145.306 494.766 139.401L510.844 130.087Z" fill="#FFC3BD"/>
<path opacity="0.2" d="M504.282 133.885L494.78 139.387C494.901 140.767 494.901 142.154 494.78 143.534C497.96 143.655 502.832 141.038 503.772 137.844C504.183 136.566 504.356 135.224 504.282 133.885V133.885Z" fill="black"/>
<path d="M493.505 101.796C488.969 102.198 485.774 114.277 488.485 120.222C491.196 126.168 503.812 100.87 493.505 101.796Z" fill="#263238"/>
<path d="M516.105 118.612C513.421 128.275 512.266 134.073 506.227 138.018C497.141 143.964 486.029 136.837 485.814 126.557C485.626 117.31 490.136 103.057 500.577 101.246C502.874 100.84 505.238 101.027 507.442 101.79C509.647 102.553 511.621 103.867 513.176 105.606C514.731 107.345 515.816 109.453 516.329 111.729C516.841 114.005 516.764 116.374 516.105 118.612Z" fill="#FFC3BD"/>
<path d="M515.796 126.154C510.71 129.67 507.677 117.874 511.408 110.868C504.174 110.64 486.673 112.13 489.68 97.6756C491.76 87.704 503.1 89.4755 507.892 93.0186C510.576 94.9512 514.186 92.267 514.186 92.267C514.186 92.267 511.891 97.3535 507.221 95.9175C504.026 94.9377 501.691 96.2127 504.322 97.9171C508.16 100.387 525.647 97.689 523.929 106.466C528.251 107.07 522.064 121.833 515.796 126.154Z" fill="#263238"/>
<path d="M523.003 107.956C523.003 107.956 521.997 103.192 529.043 106.09C527.258 106.023 523.943 106.332 523.003 107.956Z" fill="#263238"/>
<path d="M495.33 129.469C496.504 129.58 497.688 129.409 498.783 128.97C499.878 128.531 500.852 127.837 501.624 126.946C501.652 126.891 501.659 126.827 501.645 126.767C501.631 126.707 501.597 126.653 501.548 126.615C501.499 126.577 501.439 126.557 501.377 126.559C501.315 126.561 501.255 126.584 501.208 126.624C500.484 127.444 499.577 128.082 498.561 128.488C497.544 128.894 496.447 129.055 495.357 128.959C495.289 128.959 495.225 128.986 495.177 129.034C495.129 129.082 495.102 129.147 495.102 129.214C495.102 129.282 495.129 129.347 495.177 129.395C495.225 129.442 495.289 129.469 495.357 129.469H495.33Z" fill="#263238"/>
<path d="M517.313 128.584C516.018 130.753 513.92 132.325 511.475 132.959C508.227 133.751 506.697 130.825 507.69 127.819C508.576 125.135 511.341 121.417 514.562 121.954C515.263 122.084 515.92 122.387 516.475 122.835C517.029 123.284 517.462 123.864 517.736 124.522C518.009 125.181 518.113 125.897 518.04 126.607C517.966 127.316 517.716 127.995 517.313 128.584V128.584Z" fill="#FFC3BD"/>
<path d="M405.64 443.392L422.134 448.022C422.134 448.022 437.863 391.857 447.633 357.044C450.223 347.81 454.196 334.819 458.947 321.036C464.946 303.683 472.099 284.975 477.896 270.359C483.989 254.993 488.512 244.082 488.512 244.082L453.619 237.653C453.619 237.653 425.341 318.177 419.248 348.427C412.86 379.899 405.64 443.392 405.64 443.392Z" fill="#00ACEE"/>
<path opacity="0.3" d="M405.64 443.392L422.134 448.022C422.134 448.022 437.863 391.857 447.633 357.044C450.223 347.81 454.196 334.819 458.947 321.036C464.946 303.683 472.099 284.975 477.896 270.359C483.989 254.993 488.512 244.082 488.512 244.082L453.619 237.653C453.619 237.653 425.341 318.177 419.248 348.427C412.86 379.899 405.64 443.392 405.64 443.392Z" fill="white"/>
<path opacity="0.2" d="M458.987 321.036C464.986 303.683 472.139 284.974 477.937 270.359L475.092 262.065C465.187 271.473 459.215 303.374 458.987 321.036Z" fill="black"/>
<path d="M472.408 241.116C472.408 241.116 466.489 327.88 466.851 357.527C467.254 389.978 482.487 460.866 482.487 460.866H501.02C501.02 460.866 495.223 397.789 494.659 365.995C494.028 329.96 506.738 247.504 506.738 247.504L472.408 241.116Z" fill="#00ACEE"/>
<path opacity="0.3" d="M472.408 241.116C472.408 241.116 466.489 327.88 466.851 357.527C467.254 389.978 482.487 460.866 482.487 460.866H501.02C501.02 460.866 495.223 397.789 494.659 365.995C494.028 329.96 506.738 247.504 506.738 247.504L472.408 241.116Z" fill="white"/>
<path d="M480.299 461.188H502.121V454.679L477.735 454.249L480.299 461.188Z" fill="#263238"/>
<path d="M404.5 443.473L423.114 448.72L425.838 442.318L404.62 436.306L404.5 443.473Z" fill="#263238"/>
<path d="M500.658 118.102C500.483 118.907 499.92 119.444 499.396 119.337C498.873 119.229 498.591 118.491 498.766 117.699C498.94 116.907 499.504 116.357 500.027 116.451C500.55 116.545 500.832 117.323 500.658 118.102Z" fill="#263238"/>
<path d="M491.639 116.156C491.465 116.948 490.901 117.498 490.391 117.391C489.881 117.284 489.586 116.546 489.76 115.74C489.935 114.935 490.498 114.398 491.008 114.506C491.518 114.613 491.814 115.418 491.639 116.156Z" fill="#263238"/>
<path d="M494.418 117.176C492.939 119.405 491.16 121.419 489.13 123.161C490.257 124.785 492.941 124.503 492.941 124.503L494.418 117.176Z" fill="#ED847E"/>
<path d="M504.094 115.821C504.004 115.813 503.918 115.784 503.843 115.734C503.768 115.685 503.706 115.618 503.664 115.539C503.429 114.98 503.062 114.487 502.595 114.101C502.127 113.715 501.573 113.449 500.98 113.324C500.854 113.305 500.74 113.236 500.665 113.132C500.59 113.029 500.558 112.9 500.577 112.774C500.597 112.648 500.666 112.535 500.769 112.459C500.872 112.384 501.001 112.352 501.128 112.372C501.87 112.531 502.564 112.865 503.152 113.346C503.74 113.827 504.205 114.44 504.51 115.136C504.539 115.192 504.556 115.253 504.56 115.316C504.564 115.379 504.555 115.442 504.534 115.502C504.512 115.561 504.479 115.615 504.435 115.661C504.392 115.706 504.34 115.743 504.281 115.767C504.224 115.799 504.159 115.817 504.094 115.821Z" fill="#263238"/>
<path d="M488.512 112.211C488.41 112.213 488.311 112.179 488.23 112.117C488.132 112.037 488.068 111.923 488.053 111.797C488.038 111.672 488.073 111.546 488.15 111.446C488.604 110.832 489.2 110.338 489.888 110.006C490.575 109.674 491.333 109.514 492.096 109.54C492.157 109.545 492.217 109.562 492.273 109.591C492.328 109.619 492.377 109.658 492.416 109.705C492.456 109.753 492.486 109.808 492.505 109.867C492.524 109.926 492.53 109.988 492.525 110.05C492.511 110.177 492.449 110.294 492.352 110.376C492.255 110.459 492.129 110.5 492.002 110.493V110.493C491.4 110.488 490.806 110.625 490.267 110.893C489.728 111.162 489.26 111.553 488.901 112.036C488.856 112.096 488.797 112.143 488.729 112.173C488.661 112.204 488.587 112.217 488.512 112.211V112.211Z" fill="#263238"/>
<path d="M484.231 475.091C483.541 475.144 482.855 474.959 482.285 474.568C482.106 474.413 481.968 474.218 481.881 473.998C481.795 473.779 481.763 473.541 481.788 473.307C481.789 473.165 481.828 473.027 481.901 472.907C481.975 472.786 482.079 472.688 482.204 472.622C483.318 472.045 486.579 474.058 486.955 474.286C486.995 474.312 487.026 474.348 487.045 474.391C487.064 474.434 487.07 474.481 487.062 474.528C487.054 474.576 487.031 474.62 486.998 474.656C486.965 474.692 486.922 474.717 486.875 474.729C486.009 474.945 485.122 475.067 484.231 475.091V475.091ZM482.728 472.998C482.626 472.975 482.521 472.975 482.419 472.998C482.419 472.998 482.285 473.092 482.271 473.28C482.249 473.44 482.266 473.604 482.322 473.757C482.378 473.909 482.472 474.045 482.593 474.152C483.727 474.662 485.012 474.724 486.19 474.327C485.133 473.66 483.957 473.204 482.728 472.984V472.998Z" fill="#00ACEE"/>
<path d="M486.822 474.716H486.714C485.667 474.152 483.641 471.924 483.856 470.797C483.893 470.622 483.989 470.465 484.128 470.352C484.268 470.24 484.442 470.179 484.621 470.179C484.803 470.159 484.987 470.175 485.163 470.228C485.338 470.281 485.501 470.37 485.641 470.488C486.808 471.441 487.05 474.367 487.063 474.514C487.067 474.557 487.059 474.599 487.04 474.637C487.021 474.675 486.992 474.707 486.956 474.729C486.911 474.738 486.864 474.734 486.822 474.716V474.716ZM484.782 470.609H484.674C484.366 470.609 484.339 470.783 484.325 470.85C484.191 471.521 485.493 473.186 486.526 473.977C486.451 472.827 486.035 471.724 485.332 470.81C485.177 470.683 484.983 470.612 484.782 470.609V470.609Z" fill="#00ACEE"/>
<path d="M405.895 457.9C404.231 457.779 401.332 457.376 400.527 456.128C400.406 455.946 400.332 455.737 400.311 455.519C400.29 455.302 400.323 455.082 400.406 454.88C400.447 454.756 400.519 454.644 400.615 454.554C400.712 454.465 400.829 454.402 400.956 454.37C402.298 454.061 405.68 457.135 406.056 457.484C406.084 457.526 406.098 457.575 406.098 457.625C406.098 457.675 406.084 457.724 406.056 457.766C406.041 457.799 406.019 457.828 405.991 457.851C405.963 457.874 405.93 457.891 405.895 457.9ZM401.117 454.826H401.05C401 454.838 400.953 454.863 400.916 454.898C400.878 454.934 400.85 454.978 400.835 455.028C400.776 455.161 400.751 455.307 400.763 455.452C400.775 455.598 400.822 455.738 400.902 455.86C401.345 456.558 402.929 457.095 405.17 457.35C403.828 456.169 401.909 454.746 401.117 454.826Z" fill="#00ACEE"/>
<path d="M405.894 457.9C405.867 457.912 405.837 457.918 405.807 457.918C405.777 457.918 405.747 457.912 405.72 457.9C404.686 457.041 402.955 454.276 403.438 453.229C403.559 452.988 403.841 452.719 404.485 452.827C404.721 452.866 404.946 452.952 405.147 453.081C405.348 453.211 405.52 453.38 405.653 453.578C406.606 454.92 406.122 457.605 406.109 457.766C406.099 457.806 406.08 457.843 406.051 457.874C406.023 457.905 405.988 457.927 405.948 457.94L405.894 457.9ZM404.123 453.229C403.935 453.229 403.895 453.337 403.881 453.377C403.586 454.008 404.7 456.061 405.693 457.175C405.898 456.035 405.748 454.859 405.264 453.807C405.164 453.661 405.038 453.536 404.89 453.439C404.743 453.343 404.578 453.276 404.405 453.243L404.123 453.229Z" fill="#00ACEE"/>
<path d="M466.355 252.711L442.051 239.948C445.406 254.577 431.408 263.461 419.799 268.199C414.256 270.453 415.478 277.821 421.933 281.203L437.729 289.511C456.907 299.576 466.355 252.711 466.355 252.711Z" fill="#263238"/>
<path d="M471.266 255.288L426.777 231.923C419.84 228.249 414.635 221.983 412.297 214.489C409.96 206.996 410.678 198.882 414.296 191.916V191.916C417.974 184.969 424.251 179.76 431.756 177.424C439.261 175.088 447.385 175.816 454.356 179.448L498.859 202.813C505.794 206.489 510.995 212.756 513.331 220.249C515.666 227.743 514.946 235.855 511.327 242.82V242.82C507.651 249.769 501.374 254.981 493.868 257.317C486.362 259.653 478.236 258.924 471.266 255.288V255.288Z" fill="#00ACEE"/>
<path opacity="0.3" d="M471.266 255.288L426.777 231.923C419.84 228.249 414.635 221.983 412.297 214.489C409.96 206.996 410.678 198.882 414.296 191.916V191.916C417.974 184.969 424.251 179.76 431.756 177.424C439.261 175.088 447.385 175.816 454.356 179.448L498.859 202.813C505.794 206.489 510.995 212.756 513.331 220.249C515.666 227.743 514.946 235.855 511.327 242.82V242.82C507.651 249.769 501.374 254.981 493.868 257.317C486.362 259.653 478.236 258.924 471.266 255.288V255.288Z" fill="black"/>
<path d="M497.128 213.08L484.513 206.45C484.164 206.271 483.854 206.023 483.602 205.722C483.35 205.422 483.16 205.074 483.044 204.699C482.927 204.324 482.887 203.93 482.925 203.539C482.963 203.149 483.078 202.769 483.265 202.424V202.424C483.447 202.077 483.696 201.77 483.997 201.52C484.298 201.271 484.646 201.083 485.021 200.968C485.395 200.853 485.788 200.814 486.178 200.852C486.567 200.89 486.946 201.004 487.291 201.189L499.906 207.819C500.254 208 500.562 208.248 500.813 208.549C501.064 208.85 501.253 209.198 501.368 209.573C501.483 209.948 501.522 210.342 501.483 210.732C501.444 211.122 501.328 211.501 501.141 211.845V211.845C500.961 212.193 500.715 212.501 500.415 212.751C500.115 213.002 499.768 213.191 499.394 213.306C499.02 213.421 498.627 213.46 498.238 213.421C497.849 213.382 497.472 213.266 497.128 213.08V213.08Z" fill="white"/>
<path d="M476.179 202.088L469.871 198.774C469.524 198.593 469.215 198.345 468.964 198.043C468.713 197.742 468.525 197.394 468.41 197.019C468.295 196.645 468.256 196.251 468.295 195.861C468.334 195.47 468.45 195.092 468.637 194.747V194.747C468.817 194.4 469.066 194.091 469.367 193.84C469.668 193.589 470.016 193.401 470.391 193.286C470.766 193.171 471.16 193.132 471.55 193.171C471.94 193.21 472.318 193.326 472.663 193.513L478.971 196.814C479.318 196.995 479.627 197.243 479.878 197.544C480.129 197.845 480.317 198.194 480.432 198.568C480.547 198.943 480.586 199.337 480.547 199.727C480.508 200.117 480.392 200.496 480.205 200.84C480.026 201.189 479.778 201.499 479.478 201.751C479.177 202.004 478.829 202.193 478.454 202.31C478.079 202.426 477.685 202.466 477.294 202.428C476.904 202.39 476.525 202.275 476.179 202.088V202.088Z" fill="white"/>
<path d="M345.851 217.656L439.232 250.389C447.083 254.496 484.473 183.286 476.635 179.179L396.675 120.867L345.851 217.656Z" fill="#00ACEE"/>
<path opacity="0.2" d="M371.605 185.541C367.16 193.418 362.23 201.011 356.842 208.275L449.793 241.21C454.204 234.946 458.237 228.426 461.872 221.683L371.605 185.541Z" fill="black"/>
<path d="M378.463 173.046C364.425 199.78 349.81 219.75 345.824 217.656C341.838 215.563 349.984 192.157 364.022 165.477C378.06 138.797 392.662 118.773 396.648 120.867C400.634 122.96 392.514 146.285 378.463 173.046Z" fill="#263238"/>
<path d="M526.654 167.087C527.781 168.765 528.667 170.187 529.58 171.784C530.492 173.381 531.351 174.885 532.197 176.468C533.874 179.635 535.418 182.87 536.8 186.212C538.217 189.574 539.44 193.016 540.464 196.519C541.541 200.13 542.318 203.824 542.785 207.564C542.853 208.047 542.893 208.53 542.933 209.013L543.014 209.738V210.396C543.027 210.65 543.027 210.906 543.014 211.161C542.974 213.072 542.486 214.947 541.591 216.636C540.284 218.991 538.446 221.008 536.223 222.528C532.944 224.752 529.365 226.496 525.594 227.708C518.808 229.951 511.788 231.41 504.671 232.057L503.101 224.622C509.225 222.411 515.216 219.847 521.044 216.945C523.61 215.691 526.012 214.127 528.197 212.288C529.07 211.536 529.539 210.691 529.472 210.624C529.405 210.557 529.284 210.852 529.257 211.201C529.257 211.201 529.257 211.281 529.257 211.322L529.15 210.785C529.15 210.422 529.029 210.074 528.949 209.711C527.568 203.687 525.519 197.835 522.842 192.264C521.5 189.365 520.064 186.52 518.561 183.675C517.81 182.266 517.031 180.857 516.226 179.474C515.421 178.092 514.575 176.643 513.851 175.448L526.654 167.087Z" fill="#FFC3BD"/>
<path d="M536.236 173.489C534.71 169.947 532.482 166.751 529.687 164.095C524.506 159.129 515.394 159.209 511.3 165.437C510.804 166.19 510.403 167.001 510.106 167.852C509.148 171.413 509.408 175.192 510.844 178.589C513.837 186.641 517.138 194.694 520.748 202.504L541.336 185.93L536.236 173.489Z" fill="#263238"/>
<path d="M506.563 225.266L497.772 219.898L496.31 232.741C496.31 232.741 504.805 235.6 506.818 231.278L506.563 225.266Z" fill="#FFC3BD"/>
<path d="M488.378 221.387L488.942 231.037L496.31 232.795L497.773 219.951L488.378 221.387Z" fill="#FFC3BD"/>
<path d="M299.71 112.291C302.858 111.764 305.864 110.594 308.541 108.855C312.323 106.374 315.16 102.691 316.593 98.4003C312.22 100.054 307.479 100.49 302.877 99.6619C310.062 98.5708 316.641 95.0062 321.478 89.583C324.993 85.4457 327.012 80.2453 327.209 74.8202C322.222 78.5751 316.236 80.7698 310.004 81.1279C316.201 77.5996 321.035 72.0942 323.733 65.4929C325.827 60.0172 326.337 55.2797 324.914 51.5622C315.681 61.5069 302.367 65.6942 285.994 65.8687C285.994 63.9629 285.994 62.0169 286.102 60.0709C286.354 55.5797 285.101 51.1326 282.542 47.433C279.983 43.7333 276.264 40.9924 271.973 39.6435C267.682 38.2947 263.063 38.415 258.848 39.9854C254.632 41.5558 251.061 44.4866 248.698 48.3144C245.182 46.8822 241.881 44.9719 238.888 42.6375C239.95 46.57 242.099 50.1236 245.088 52.8909C242.063 52.09 239.154 50.9038 236.432 49.3612C238.253 53.4678 241.313 56.9025 245.182 59.1852C243.494 69.395 244.377 79.8644 247.75 89.6476C251.123 99.4308 256.881 108.219 264.503 115.219C272.124 122.219 281.37 127.209 291.404 129.739C301.439 132.27 311.945 132.26 321.975 129.711C313.196 125.887 305.534 119.892 299.71 112.291V112.291Z" fill="#00ACEE"/>
<path d="M150.003 188.869C150.537 188.056 150.897 187.143 151.063 186.185C151.3 184.802 151.053 183.381 150.365 182.159C149.833 183.501 148.942 184.671 147.788 185.541C149.042 183.679 149.607 181.439 149.385 179.206C149.173 177.537 148.408 175.987 147.211 174.804C147.028 176.729 146.276 178.556 145.051 180.052C145.545 177.901 145.304 175.647 144.366 173.65C143.801 172.271 142.757 171.142 141.427 170.469C141.763 174.656 139.937 178.522 136.555 182.333C136.126 181.944 135.683 181.528 135.213 181.098C134.235 180.158 132.977 179.561 131.63 179.399C130.282 179.236 128.919 179.516 127.744 180.196C126.57 180.876 125.649 181.92 125.12 183.17C124.591 184.42 124.483 185.808 124.812 187.124C123.754 187.621 122.635 187.978 121.484 188.185C122.604 188.763 123.865 189.014 125.121 188.909C124.279 189.428 123.378 189.842 122.437 190.144C123.746 190.564 125.154 190.564 126.463 190.144C128.434 192.667 131.005 194.657 133.94 195.935C136.876 197.213 140.084 197.738 143.274 197.462C146.464 197.186 149.534 196.118 152.207 194.355C154.88 192.592 157.07 190.19 158.579 187.366C155.893 188.584 152.942 189.101 150.003 188.869V188.869Z" fill="#00ACEE"/>
<path d="M314.271 185.205C315.296 183.682 315.995 181.965 316.325 180.159C316.773 177.599 316.352 174.963 315.13 172.67C314.092 175.148 312.404 177.299 310.245 178.898C312.62 175.466 313.721 171.312 313.359 167.154C313.01 164.048 311.625 161.15 309.426 158.928C309.042 162.494 307.608 165.866 305.306 168.617C306.263 164.633 305.862 160.443 304.166 156.713C302.689 153.68 300.918 151.613 298.797 150.741C299.321 158.512 295.831 165.732 289.403 172.657C288.598 171.905 287.806 171.14 287.014 170.335C285.236 168.461 282.884 167.234 280.331 166.845C277.777 166.457 275.167 166.93 272.912 168.191C270.658 169.451 268.887 171.427 267.88 173.806C266.874 176.184 266.688 178.831 267.353 181.327C265.381 182.235 263.295 182.872 261.152 183.219C263.209 184.32 265.535 184.818 267.863 184.655C266.338 185.606 264.696 186.355 262.978 186.883C265.411 187.749 268.055 187.824 270.533 187.098C274.142 191.823 278.87 195.575 284.292 198.015C289.713 200.455 295.658 201.506 301.587 201.073C307.517 200.64 313.245 198.737 318.255 195.536C323.265 192.334 327.398 187.935 330.282 182.736C325.24 184.9 319.731 185.75 314.271 185.205V185.205Z" fill="#00ACEE"/>
<path d="M209.644 146.876C211.51 145.676 213.113 144.11 214.355 142.273C216.097 139.653 216.91 136.524 216.663 133.388C214.318 135.638 211.404 137.206 208.235 137.924C212.542 135.277 215.789 131.209 217.415 126.423C218.524 122.811 218.392 118.932 217.039 115.404C214.876 119.167 211.65 122.206 207.765 124.141C210.759 120.191 212.35 115.355 212.288 110.398C212.127 106.372 211.161 103.165 209.242 101.165C206.048 110.05 198.68 116.344 188.252 120.934C187.715 119.712 187.218 118.464 186.735 117.189C185.677 114.243 183.665 111.734 181.019 110.061C178.372 108.389 175.243 107.647 172.127 107.956C169.012 108.264 166.088 109.604 163.821 111.763C161.554 113.922 160.072 116.777 159.612 119.873C156.988 119.924 154.369 119.616 151.828 118.961C153.569 121.174 155.893 122.856 158.538 123.819C156.391 124.138 154.212 124.17 152.056 123.913C154.332 126.053 157.225 127.42 160.323 127.818C162.029 134.804 165.448 141.254 170.271 146.587C175.094 151.92 181.169 155.968 187.948 158.366C194.727 160.763 201.996 161.434 209.1 160.318C216.203 159.203 222.917 156.336 228.635 151.976C221.975 151.912 215.44 150.157 209.644 146.876Z" fill="#00ACEE"/>
<path opacity="0.3" d="M209.644 146.876C211.51 145.676 213.113 144.11 214.355 142.273C216.097 139.653 216.91 136.524 216.663 133.388C214.318 135.638 211.404 137.206 208.235 137.924C212.542 135.277 215.789 131.209 217.415 126.423C218.524 122.811 218.392 118.932 217.039 115.404C214.876 119.167 211.65 122.206 207.765 124.141C210.759 120.191 212.35 115.355 212.288 110.398C212.127 106.372 211.161 103.165 209.242 101.165C206.048 110.05 198.68 116.344 188.252 120.934C187.715 119.712 187.218 118.464 186.735 117.189C185.677 114.243 183.665 111.734 181.019 110.061C178.372 108.389 175.243 107.647 172.127 107.956C169.012 108.264 166.088 109.604 163.821 111.763C161.554 113.922 160.072 116.777 159.612 119.873C156.988 119.924 154.369 119.616 151.828 118.961C153.569 121.174 155.893 122.856 158.538 123.819C156.391 124.138 154.212 124.17 152.056 123.913C154.332 126.053 157.225 127.42 160.323 127.818C162.029 134.804 165.448 141.254 170.271 146.587C175.094 151.92 181.169 155.968 187.948 158.366C194.727 160.763 201.996 161.434 209.1 160.318C216.203 159.203 222.917 156.336 228.635 151.976C221.975 151.912 215.44 150.157 209.644 146.876Z" fill="black"/>
<path d="M361.74 129.724C362.689 129.479 363.579 129.045 364.357 128.449C365.459 127.59 366.239 126.384 366.572 125.027C365.271 125.641 363.83 125.896 362.398 125.765C364.574 125.245 366.501 123.983 367.847 122.195C368.811 120.836 369.284 119.189 369.189 117.525C367.747 118.796 365.965 119.617 364.062 119.887C365.878 118.652 367.226 116.841 367.887 114.747C368.409 113.358 368.409 111.827 367.887 110.439C365.31 113.727 361.324 115.351 356.305 115.807C356.305 115.217 356.211 114.613 356.184 114.022C356.15 112.637 355.656 111.303 354.78 110.231C353.903 109.159 352.694 108.409 351.343 108.101C349.993 107.793 348.578 107.945 347.323 108.531C346.068 109.117 345.045 110.105 344.414 111.338C343.301 110.991 342.24 110.494 341.26 109.862C341.69 111.043 342.444 112.08 343.434 112.855C342.484 112.68 341.56 112.387 340.683 111.982C341.342 113.2 342.365 114.18 343.609 114.787C343.221 119.567 344.638 124.319 347.579 128.107C350.52 131.895 354.772 134.444 359.499 135.254C362.645 135.792 365.876 135.529 368.893 134.489C366.149 133.522 363.69 131.884 361.74 129.724V129.724Z" fill="#00ACEE"/>
<path opacity="0.3" d="M361.74 129.724C362.689 129.479 363.579 129.045 364.357 128.449C365.459 127.59 366.239 126.384 366.572 125.027C365.271 125.641 363.83 125.896 362.398 125.765C364.574 125.245 366.501 123.983 367.847 122.195C368.811 120.836 369.284 119.189 369.189 117.525C367.747 118.796 365.965 119.617 364.062 119.887C365.878 118.652 367.226 116.841 367.887 114.747C368.409 113.358 368.409 111.827 367.887 110.439C365.31 113.727 361.324 115.351 356.305 115.807C356.305 115.217 356.211 114.613 356.184 114.022C356.15 112.637 355.656 111.303 354.78 110.231C353.903 109.159 352.694 108.409 351.343 108.101C349.993 107.793 348.578 107.945 347.323 108.531C346.068 109.117 345.045 110.105 344.414 111.338C343.301 110.991 342.24 110.494 341.26 109.862C341.69 111.043 342.444 112.08 343.434 112.855C342.484 112.68 341.56 112.387 340.683 111.982C341.342 113.2 342.365 114.18 343.609 114.787C343.221 119.567 344.638 124.319 347.579 128.107C350.52 131.895 354.772 134.444 359.499 135.254C362.645 135.792 365.876 135.529 368.893 134.489C366.149 133.522 363.69 131.884 361.74 129.724V129.724Z" fill="black"/>
<path d="M236.754 226.809C237.587 225.658 238.172 224.347 238.471 222.957C238.89 220.979 238.63 218.918 237.733 217.106C236.844 219.02 235.452 220.657 233.707 221.844C235.631 219.224 236.58 216.016 236.391 212.771C236.194 210.347 235.187 208.059 233.533 206.276C233.143 209.04 231.942 211.627 230.084 213.711C230.928 210.636 230.72 207.367 229.493 204.424C228.779 202.39 227.347 200.686 225.467 199.632C225.668 205.698 222.783 211.228 217.643 216.448C217.039 215.844 216.435 215.227 215.844 214.583C214.508 213.083 212.71 212.07 210.735 211.705C208.759 211.339 206.718 211.642 204.934 212.565C203.15 213.488 201.723 214.979 200.88 216.802C200.036 218.626 199.824 220.678 200.276 222.635C198.728 223.31 197.093 223.762 195.418 223.977C196.991 224.91 198.797 225.375 200.625 225.319C199.412 226.022 198.113 226.564 196.76 226.93C198.629 227.662 200.68 227.789 202.625 227.292C205.313 231.056 208.897 234.092 213.052 236.124C217.207 238.156 221.803 239.121 226.425 238.932C231.047 238.743 235.548 237.405 239.524 235.04C243.499 232.676 246.823 229.358 249.195 225.387C245.232 226.896 240.954 227.386 236.754 226.809Z" fill="#00ACEE"/>
<path opacity="0.4" d="M236.754 226.809C237.587 225.658 238.172 224.347 238.471 222.957C238.89 220.979 238.63 218.918 237.733 217.106C236.844 219.02 235.452 220.657 233.707 221.844C235.631 219.224 236.58 216.016 236.391 212.771C236.194 210.347 235.187 208.059 233.533 206.276C233.143 209.04 231.942 211.627 230.084 213.711C230.928 210.636 230.72 207.367 229.493 204.424C228.779 202.39 227.347 200.686 225.467 199.632C225.668 205.698 222.783 211.228 217.643 216.448C217.039 215.844 216.435 215.227 215.844 214.583C214.508 213.083 212.71 212.07 210.735 211.705C208.759 211.339 206.718 211.642 204.934 212.565C203.15 213.488 201.723 214.979 200.88 216.802C200.036 218.626 199.824 220.678 200.276 222.635C198.728 223.31 197.093 223.762 195.418 223.977C196.991 224.91 198.797 225.375 200.625 225.319C199.412 226.022 198.113 226.564 196.76 226.93C198.629 227.662 200.68 227.789 202.625 227.292C205.313 231.056 208.897 234.092 213.052 236.124C217.207 238.156 221.803 239.121 226.425 238.932C231.047 238.743 235.548 237.405 239.524 235.04C243.499 232.676 246.823 229.358 249.195 225.387C245.232 226.896 240.954 227.386 236.754 226.809Z" fill="white"/>
<path d="M109.633 128.489C110.786 127.742 111.777 126.77 112.545 125.631C113.598 123.985 114.071 122.034 113.887 120.088C112.449 121.489 110.659 122.476 108.707 122.947C111.392 121.288 113.407 118.736 114.397 115.74C115.089 113.491 114.999 111.074 114.142 108.882C112.803 111.23 110.8 113.13 108.385 114.344C110.236 111.877 111.213 108.865 111.163 105.782C111.237 103.698 110.555 101.658 109.244 100.038C107.271 105.567 102.708 109.526 96.2124 112.411C95.8903 111.646 95.5682 110.868 95.2595 110.076C94.5936 108.244 93.3351 106.687 91.6836 105.652C90.0321 104.616 88.0822 104.162 86.1431 104.361C84.204 104.56 82.3869 105.4 80.9799 106.749C79.5729 108.098 78.6566 109.879 78.3763 111.808C76.7394 111.847 75.1047 111.662 73.5181 111.257C74.6208 112.638 76.0907 113.68 77.759 114.264C76.4258 114.462 75.0728 114.489 73.7328 114.344C75.1421 115.665 76.9307 116.51 78.8461 116.76C80.4754 123.305 84.4973 129.002 90.119 132.728C95.7408 136.454 102.554 137.939 109.217 136.891C113.682 136.2 117.899 134.385 121.47 131.616C117.323 131.595 113.25 130.519 109.633 128.489V128.489Z" fill="#00ACEE"/>
<path opacity="0.4" d="M109.633 128.489C110.786 127.742 111.777 126.77 112.545 125.631C113.598 123.985 114.071 122.034 113.887 120.088C112.449 121.489 110.659 122.476 108.707 122.947C111.392 121.288 113.407 118.736 114.397 115.74C115.089 113.491 114.999 111.074 114.142 108.882C112.803 111.23 110.8 113.13 108.385 114.344C110.236 111.877 111.213 108.865 111.163 105.782C111.237 103.698 110.555 101.658 109.244 100.038C107.271 105.567 102.708 109.526 96.2124 112.411C95.8903 111.646 95.5682 110.868 95.2595 110.076C94.5936 108.244 93.3351 106.687 91.6836 105.652C90.0321 104.616 88.0822 104.162 86.1431 104.361C84.204 104.56 82.3869 105.4 80.9799 106.749C79.5729 108.098 78.6566 109.879 78.3763 111.808C76.7394 111.847 75.1047 111.662 73.5181 111.257C74.6208 112.638 76.0907 113.68 77.759 114.264C76.4258 114.462 75.0728 114.489 73.7328 114.344C75.1421 115.665 76.9307 116.51 78.8461 116.76C80.4754 123.305 84.4973 129.002 90.119 132.728C95.7408 136.454 102.554 137.939 109.217 136.891C113.682 136.2 117.899 134.385 121.47 131.616C117.323 131.595 113.25 130.519 109.633 128.489V128.489Z" fill="white"/>
<path d="M188.829 57.2394C190.729 56.9759 192.556 56.3274 194.197 55.3337C196.495 53.8995 198.244 51.7347 199.163 49.187C196.507 50.1124 193.652 50.3071 190.896 49.7507C195.219 49.192 199.214 47.1471 202.196 43.9664C204.357 41.5369 205.634 38.4488 205.819 35.2027C202.784 37.3868 199.169 38.62 195.432 38.7457C199.182 36.6987 202.135 33.4518 203.82 29.5257C205.162 26.2645 205.497 23.4462 204.706 21.2049C199.042 27.0295 191.03 29.3513 181.219 29.2573C181.219 28.1032 181.286 26.949 181.354 25.7814C181.599 23.0836 180.93 20.3818 179.454 18.1099C177.979 15.8381 175.783 14.1281 173.219 13.2548C170.654 12.3815 167.871 12.3955 165.316 13.2945C162.76 14.1936 160.581 15.9256 159.129 18.2121C157.05 17.3358 155.104 16.175 153.345 14.763C153.957 17.1523 155.232 19.3202 157.022 21.0171C155.193 20.5036 153.438 19.7547 151.801 18.7892C152.832 21.273 154.616 23.3711 156.901 24.7883C155.757 30.8757 156.147 37.1524 158.037 43.0511C159.927 48.9499 163.257 54.2848 167.726 58.5738C172.195 62.8629 177.662 65.9709 183.633 67.6171C189.605 69.2634 195.892 69.3959 201.927 68.0028C196.717 65.5873 192.209 61.8828 188.829 57.2394V57.2394Z" fill="#00ACEE"/>
<path opacity="0.4" d="M188.829 57.2394C190.729 56.9759 192.556 56.3274 194.197 55.3337C196.495 53.8995 198.244 51.7347 199.163 49.187C196.507 50.1124 193.652 50.3071 190.896 49.7507C195.219 49.192 199.214 47.1471 202.196 43.9664C204.357 41.5369 205.634 38.4488 205.819 35.2027C202.784 37.3868 199.169 38.62 195.432 38.7457C199.182 36.6987 202.135 33.4518 203.82 29.5257C205.162 26.2645 205.497 23.4462 204.706 21.2049C199.042 27.0295 191.03 29.3513 181.219 29.2573C181.219 28.1032 181.286 26.949 181.354 25.7814C181.599 23.0836 180.93 20.3818 179.454 18.1099C177.979 15.8381 175.783 14.1281 173.219 13.2548C170.654 12.3815 167.871 12.3955 165.316 13.2945C162.76 14.1936 160.581 15.9256 159.129 18.2121C157.05 17.3358 155.104 16.175 153.345 14.763C153.957 17.1523 155.232 19.3202 157.022 21.0171C155.193 20.5036 153.438 19.7547 151.801 18.7892C152.832 21.273 154.616 23.3711 156.901 24.7883C155.757 30.8757 156.147 37.1524 158.037 43.0511C159.927 48.9499 163.257 54.2848 167.726 58.5738C172.195 62.8629 177.662 65.9709 183.633 67.6171C189.605 69.2634 195.892 69.3959 201.927 68.0028C196.717 65.5873 192.209 61.8828 188.829 57.2394V57.2394Z" fill="white"/>
</svg>
