<svg width="517" height="420" viewBox="0 0 517 420" fill="none" xmlns="http://www.w3.org/2000/svg">
<g filter="url(#filter0_d_46_117)">
<path d="M506.593 52.2966C488.345 60.3793 468.717 65.7724 448.014 68.3241C469.062 55.8276 485.255 35.8966 492.855 12.3517C473.159 23.8966 451.338 32.3793 428.124 36.8483C409.586 17.1931 383.145 5 353.848 5C297.572 5 251.959 50.2138 251.959 105.966C251.959 113.855 252.883 121.538 254.621 129C169.959 124.752 94.869 84.5035 44.6345 23.4276C35.8069 38.3517 30.8414 55.8276 30.8414 74.269C30.8414 109.317 48.7862 140.172 76.1517 158.352C59.4483 157.841 43.7241 153.193 29.9586 145.745C29.9586 146.048 29.9586 146.503 29.9586 146.931C29.9586 195.91 65.0897 236.697 111.655 245.979C103.145 248.31 94.1517 249.607 84.8828 249.607C78.3034 249.607 71.8897 248.862 65.6828 247.745C78.6483 287.772 116.262 317.028 160.828 317.897C125.959 344.931 82.0414 361.124 34.2897 361.124C26.0414 361.124 17.9724 360.655 10 359.69C55.1172 388.255 108.69 405 166.193 405C353.572 405 456.083 251.124 456.083 117.634C456.083 113.262 455.945 108.903 455.738 104.6C475.738 90.4759 492.979 72.6552 506.593 52.2966Z" fill="#00ACEE"/>
</g>
<defs>
<filter id="filter0_d_46_117" x="0" y="0" width="516.593" height="420" filterUnits="userSpaceOnUse" color-interpolation-filters="sRGB">
<feFlood flood-opacity="0" result="BackgroundImageFix"/>
<feColorMatrix in="SourceAlpha" type="matrix" values="0 0 0 0 0 0 0 0 0 0 0 0 0 0 0 0 0 0 127 0" result="hardAlpha"/>
<feOffset dy="5"/>
<feGaussianBlur stdDeviation="5"/>
<feComposite in2="hardAlpha" operator="out"/>
<feColorMatrix type="matrix" values="0 0 0 0 0 0 0 0 0 0 0 0 0 0 0 0 0 0 0.25 0"/>
<feBlend mode="normal" in2="BackgroundImageFix" result="effect1_dropShadow_46_117"/>
<feBlend mode="normal" in="SourceGraphic" in2="effect1_dropShadow_46_117" result="shape"/>
</filter>
</defs>
</svg>
